<?xml version="1.0" standalone="no"?>
<!DOCTYPE svg PUBLIC "-//W3C//DTD SVG 1.1//EN" "http://www.w3.org/Graphics/SVG/1.1/DTD/svg11.dtd" >
<svg xmlns="http://www.w3.org/2000/svg" xmlns:xlink="http://www.w3.org/1999/xlink" version="1.1">
<metadata>
Created by FontForge 20170731 at Fri Jan  2 11:23:10 2004
 By Aleksey,,,
Revised by Viktar Autushka, Miensk, Bielarus', 2000
</metadata>
<defs>
<font id="CalligraphiaOne" horiz-adv-x="404" >
  <font-face 
    font-family="Calligraphia One"
    font-weight="400"
    font-stretch="normal"
    units-per-em="917"
    panose-1="2 0 4 0 0 0 0 0 0 0"
    ascent="733"
    descent="-184"
    x-height="218"
    cap-height="639"
    bbox="-319 -280 1285 764"
    underline-thickness="50"
    underline-position="-175"
    unicode-range="U+0020-2122"
  />
<missing-glyph horiz-adv-x="459" 
d="M57 0v714h344v-714h-344zM115 57h229v600h-229v-600z" />
    <glyph glyph-name=".notdef" horiz-adv-x="459" 
d="M57 0v714h344v-714h-344zM115 57h229v600h-229v-600z" />
    <glyph glyph-name=".null" horiz-adv-x="0" 
 />
    <glyph glyph-name="nonmarkingreturn" horiz-adv-x="240" 
 />
    <glyph glyph-name="space" unicode=" " horiz-adv-x="240" 
 />
    <glyph glyph-name="exclam" unicode="!" horiz-adv-x="319" 
d="M312 344q0 -17 -10 -30q-23 -30 -76 -87t-76 -88q-5 -6 -18 -13q0 8 8 20q23 33 67 101q16 30 53 87q16 22 31 22q16 0 21 -12zM101 34q0 -34 -36 -34q-20 0 -20 12q0 33 36 33q16 0 20 -11z" />
    <glyph glyph-name="quotedbl" unicode="&#x22;" horiz-adv-x="197" 
d="M236 534q1 -9 -4 -15q-31 -29 -90 -91q-4 -5 -8 -4q24 40 74 112q6 6 16 6q7 0 12 -8zM141 534q0 -9 -5 -15q-31 -29 -90 -91q-4 -5 -7 -4l74 112q5 6 15 6q8 0 13 -8z" />
    <glyph glyph-name="numbersign" unicode="#" horiz-adv-x="465" 
d="M433 314l-13 -20h-90l-53 -74h106l-12 -18h-107l-56 -83h-20l56 83h-97l-55 -79h-25l56 79h-101l12 18h100l54 74h-94l12 20h96l56 77h27l-61 -77h95l55 77h21l-57 -77h95zM309 294h-100l-51 -74h99z" />
    <glyph glyph-name="dollar" unicode="$" horiz-adv-x="590" 
d="M592 397q0 -35 -37 -35q-11 0 -21 6q-13 7 -13 17q0 41 47 41q-10 38 -66 46q-40 -56 -121 -167q45 -75 45 -145q0 -26 -7 -52q-14 -54 -87 -89q-62 -31 -125 -31q-25 0 -44 8q-18 -27 -51 -82q-7 1 -18 5q28 39 54 80q-42 12 -73 37q-37 32 -37 69q0 47 48 47
q29 0 29 -31q0 -33 -37 -33q-18 0 -23 17q0 -34 34.5 -63t68.5 -29l179 254q-25 49 -25 87q0 69 57 103q46 28 119 28q17 21 46 64l13 -8q-13 -20 -42 -57q31 -4 59 -30t28 -57zM482 475q-126 0 -126 -92q0 -31 16 -66q38 51 110 158zM372 167q0 50 -25 86
q-65 -85 -172 -244q16 -6 34 -6q48 0 93.5 27t58.5 69q11 35 11 68z" />
    <glyph glyph-name="percent" unicode="%" horiz-adv-x="382" 
d="M224 447q0 -59 -45 -119q-48 -63 -106 -63q-46 0 -46 69q0 60 49.5 108.5t108.5 48.5q39 0 39 -44zM403 528q-10 -50 -280 -411l-93 -129q-5 -6 -17 -13q-1 29 293 428q15 20 81 116q3 6 14 13zM375 176q0 -58 -46 -118q-49 -63 -105 -63q-46 0 -46 70q0 34 24 73
q22 34 53.5 58.5t80.5 24.5q39 0 39 -45zM217 447q0 38 -32 38q-39 0 -86 -73q-44 -67 -44 -110q0 -24 25 -24q48 0 94 61q43 58 43 108zM368 175q0 39 -32 39q-39 0 -87 -72q-44 -68 -44 -110q0 -24 26 -24q46 0 93 61q44 57 44 106z" />
    <glyph glyph-name="ampersand" unicode="&#x26;" horiz-adv-x="529" 
d="M494 157q0 -23 -25 -23q-18 0 -21 18l4 14l-2 3q-34 0 -65 -46q-20 -37 -41 -74q13 -34 13 -93q0 -105 -78 -166q-72 -55 -179 -55q-133 0 -133 81q0 48 54 85q49 34 100 34q9 0 17 -2q0 -7 -16 -8q-49 -4 -92 -31q-50 -32 -50 -76q0 -70 98 -70q117 0 187 67t70 183
q0 18 -3 39q-45 -54 -110 -54q-36 0 -57.5 20t-21.5 55q0 30 19.5 56.5t47.5 37.5q27 5 80 19q-7 14 -7 36q0 14 1 21q1 25 30 43q26 16 53 16q16 0 29.5 -11.5t13.5 -27.5q0 -38 -32 -62q-28 -21 -69 -25q10 -16 16 -47q7 -36 13 -49q51 119 117 119q39 0 39 -27zM400 239
q0 15 -10.5 26.5t-25.5 11.5q-31 0 -49.5 -21t-18.5 -53q0 -13 9 -30q33 0 61 16q34 19 34 50zM327 49q-9 16 -14 56q-6 37 -18 54q-118 -25 -118 -130q0 -36 54 -36q55 0 96 56z" />
    <glyph glyph-name="quotesingle" unicode="'" horiz-adv-x="208" 
d="M268 537q0 -29 -33 -61.5t-63 -38.5l6 5l34 26q21 16 30 30q1 8 -13.5 8.5t-14.5 9.5q0 35 37 35q17 0 17 -14z" />
    <glyph glyph-name="parenleft" unicode="(" horiz-adv-x="299" 
d="M459 610q-5 -7 -20 -13q-100 -47 -145 -96q-56 -62 -134 -183q-110 -172 -110 -361q0 -30 -7 -30q-9 0 -9 59q0 74 19 154q35 143 139 277q110 142 238 195q15 6 24 6q6 0 5 -8z" />
    <glyph glyph-name="parenright" unicode=")" horiz-adv-x="377" 
d="M371 478q0 -62 -18 -131q-24 -98 -71.5 -165t-131.5 -127q-49 -35 -109 -71q-84 -51 -110 -51q-8 0 -6 10q4 5 23 14q309 136 382 394q20 72 20 133q0 52 -14 110q-4 16 -4 26l2 2q19 -14 29 -68q8 -40 8 -76z" />
    <glyph glyph-name="asterisk" unicode="*" horiz-adv-x="199" 
d="M182 348q0 -18 -15 -18q-21 0 -57 45q15 -41 15 -59q0 -16 -16 -16t-16 28q0 16 11 47q-33 -42 -52 -42q-16 0 -16 17q0 11 27 21q22 8 37 9q-12 1 -38.5 15.5t-26.5 24.5q0 13 13 13q19 0 56 -45q-11 35 -11 61q0 18 14 18q16 0 16 -30q0 -13 -13 -49q37 45 58 45
q12 0 12 -12q0 -16 -66 -40q68 -14 68 -33z" />
    <glyph glyph-name="plus" unicode="+" horiz-adv-x="197" 
d="M172 142l-8 -13h-58l-34 -48h-15l34 48h-60l9 13h59l34 48h14l-33 -48h58z" />
    <glyph glyph-name="comma" unicode="," horiz-adv-x="108" 
d="M88 31q0 -28 -33.5 -61t-62.5 -38q58 43 70 60q0 8 -14 9t-14 10q0 34 36 34q18 0 18 -14z" />
    <glyph glyph-name="hyphen" unicode="-" horiz-adv-x="197" 
d="M173 136q-5 -4 -18.5 -9.5t-20.5 -5.5h-15q-11 0 -32.5 4t-32.5 4q-4 0 -12.5 -1.5t-12.5 -1.5h-3q15 14 52 14q12 0 34 -4t34 -4q14 0 21 4h6z" />
    <glyph glyph-name="hyphen" unicode="&#x2010;" horiz-adv-x="197" 
d="M173 136q-5 -4 -18.5 -9.5t-20.5 -5.5h-15q-11 0 -32.5 4t-32.5 4q-4 0 -12.5 -1.5t-12.5 -1.5h-3q15 14 52 14q12 0 34 -4t34 -4q14 0 21 4h6z" />
    <glyph glyph-name="period" unicode="." horiz-adv-x="104" 
d="M83 34q0 -34 -37 -34q-19 0 -19 12q0 14 11 23.5t26 9.5q19 0 19 -11z" />
    <glyph glyph-name="slash" unicode="/" horiz-adv-x="323" 
d="M394 539q0 -6 -4 -13q-46 -92 -150 -205q-152 -167 -170 -190q-34 -44 -89 -145q-6 -10 -11 -15l-6 2q0 7 7 22q56 125 146 226q91 96 182 191q26 30 79 118q4 6 14 13z" />
    <glyph glyph-name="zero" unicode="0" horiz-adv-x="276" 
d="M304 312q0 -88 -81 -199q-87 -118 -171 -118q-48 0 -48 72q0 82 54 157q51 70 128 108q46 22 78 22q40 0 40 -42zM292 309q0 36 -28 36q-64 0 -154 -118q-88 -114 -88 -181q0 -42 37 -42q74 0 156 117q77 110 77 188z" />
    <glyph glyph-name="one" unicode="1" horiz-adv-x="240" 
d="M295 356q-60 -80 -129 -180q-98 -143 -107 -176h-73l274 331q-101 -60 -131 -78q-102 -59 -124 -64l-5 2q1 5 11 11q48 26 144 79q34 21 69 41q41 25 70 36z" />
    <glyph glyph-name="two" unicode="2" horiz-adv-x="299" 
d="M336 277q0 -68 -64 -114q-36 -27 -129 -64q-81 -33 -100 -55q70 0 138 -23q11 -4 21 -4q54 0 78 52q2 4 7 11l5 -2q-1 -33 -38.5 -61.5t-71.5 -28.5q-25 0 -72.5 15t-72.5 15q-29 0 -38 -11q-15 -18 -19 -21q-2 36 87 88q61 33 122 65q45 26 77 69q34 47 34 95
q0 42 -36 42q-48 0 -95.5 -44t-47.5 -91q0 -31 33 -31q43 0 78 47q20 28 20 55q0 15 5 15t5 -16q0 -40 -35 -75.5t-74 -35.5q-46 0 -46 49q0 57 51 98q48 38 106 38q72 0 72 -77z" />
    <glyph glyph-name="three" unicode="3" horiz-adv-x="348" 
d="M358 298q0 -28 -27 -50.5t-57 -25.5q42 -2 42 -59q0 -73 -77 -123q-68 -45 -145 -45q-36 0 -67 17q-38 20 -38 53q0 28 24 28q22 0 22 -24q0 -19 -29 -19q2 -21 37 -35q28 -11 54 -11q41 0 75 20q38 23 73 60q43 47 43 80q0 52 -29 51q-7 -2 -78 -26q-8 0 -8 4q0 6 7 9
l96 36q63 30 63 71q0 38 -39 38q-35 0 -68 -19q-40 -22 -40 -54q0 -26 29 -26q33 0 48 19.5t29 40.5l3 -1v-9q0 -21 -26.5 -39t-48.5 -18q-44 0 -44 49q0 32 45 51q35 15 73 15q24 0 41 -17t17 -41z" />
    <glyph glyph-name="four" unicode="4" horiz-adv-x="294" 
d="M307 348q-85 -62 -260 -230q20 3 53 3q40 0 106 -5q9 10 82 117q5 8 12 7l3 -4q-1 -7 -74 -122q15 5 46 11q-1 -8 -22 -13q-16 -5 -27 -5q-39 -71 -60 -107q-7 -1 -20 -1h-33q18 22 85 109q-55 3 -93 3q-33 0 -90 -11q2 7 12 16q74 69 119 122q32 39 100 110q13 4 36 4
q3 0 25 -4z" />
    <glyph glyph-name="five" unicode="5" horiz-adv-x="382" 
d="M412 343q-53 -40 -97 -40q-19 0 -61 15q-28 -36 -76 -112q34 18 46 22q20 7 51 7q24 0 39 -28q12 -22 12 -48q0 -73 -78 -121q-69 -42 -147 -42q-34 0 -62 17q-32 19 -32 52q0 28 22 28t22 -24q0 -19 -28 -19q2 -21 31 -35q25 -11 49 -11q50 0 88 29q35 26 68 66
q41 50 41 81q0 47 -42 47q-35 0 -94 -38l-7 6l111 160q13 0 33.5 -11t27.5 -11h46q9 0 30 14l5 -2z" />
    <glyph glyph-name="six" unicode="6" horiz-adv-x="289" 
d="M337 309q0 -17 -11 -17q-28 0 -28 16l14 20q-14 22 -42 22q-59 0 -116 -63q-31 -34 -80 -115q17 21 50 34q30 12 59 12q25 0 40 -27q13 -23 13 -50q0 -60 -50.5 -103.5t-112.5 -43.5q-33 0 -52 27q-15 24 -15 59q0 95 87 187.5t181 92.5q24 0 43.5 -14.5t19.5 -36.5z
M211 174q0 36 -42 36q-21 0 -59 -22.5t-50 -41.5q-3 -5 -21 -41q-15 -28 -15 -35q0 -68 50 -68q51 0 96 62q41 57 41 110z" />
    <glyph glyph-name="seven" unicode="7" horiz-adv-x="265" 
d="M347 391q0 -6 -9 -16q-156 -186 -245 -310q-35 -49 -43 -60q-23 -35 -36 -65q-10 -1 -32 -1q-21 0 -32 1q215 268 339 394q-31 -8 -69 -8q-12 0 -36 6.5t-37 6.5q-10 0 -23 -18t-21 -21q-6 0 -6 3q0 4 6 11q19 17 35 45l28 50q6 11 15 10l3 -6q-1 -9 -41 -64q27 10 55 10
q12 0 34 -6.5t33 -6.5q24 0 33 2.5t24 24t19 21.5q6 0 6 -3z" />
    <glyph glyph-name="eight" unicode="8" horiz-adv-x="265" 
d="M306 286q0 -44 -108 -83q36 -54 36 -83q0 -61 -33.5 -95t-94.5 -34q-34 0 -63 25t-29 58q0 48 52 83q40 28 94 39q-28 45 -28 77q0 39 38 63q33 20 74 20q35 0 48.5 -17t13.5 -53zM298 288q0 33 -13.5 47t-46.5 14q-76 0 -76 -70q0 -24 32 -69q29 10 62 30q42 26 42 48z
M211 70q0 57 -48 122q-68 -26 -90 -39q-49 -32 -49 -79q0 -30 25 -51.5t56 -21.5q34 0 67 18q39 21 39 51z" />
    <glyph glyph-name="nine" unicode="9" horiz-adv-x="319" 
d="M336 280q0 -99 -81 -191q-83 -95 -181 -95q-72 0 -72 68q0 23 27 23q16 0 21 -14q1 -30 -26 -30q-5 0 -11 1q1 -18 23 -30q18 -11 38 -11q79 0 153 107q13 25 44 72q-50 -45 -87 -45q-24 0 -41.5 18t-17.5 42q0 56 21 90q19 31 52.5 54.5t67.5 23.5q70 0 70 -83zM317 316
q0 36 -37 36t-86.5 -66.5t-49.5 -104.5q0 -36 40 -36q21 0 47 15q34 21 53 55q14 24 28 73q5 16 5 28z" />
    <glyph glyph-name="colon" unicode=":" horiz-adv-x="129" 
d="M130 183q0 -33 -36 -33q-20 0 -20 11q0 34 36 34q16 0 20 -12zM83 33q0 -34 -37 -34q-19 0 -19 12q0 14 11 23.5t26 9.5q19 0 19 -11z" />
    <glyph glyph-name="semicolon" unicode=";" horiz-adv-x="125" 
d="M136 183q0 -33 -37 -33q-19 0 -19 11q0 34 36 34q16 0 20 -12zM87 31q0 -30 -33 -61t-64 -38q28 19 71 60q0 8 -14 9t-14 10q0 34 36 34q18 0 18 -14z" />
    <glyph glyph-name="less" unicode="&#x3c;" horiz-adv-x="218" 
d="M188 286q0 -2 -54 -41t-54 -67q0 -34 42 -82t42 -54q0 -3 -6 -3q-10 0 -68.5 58.5t-58.5 70.5q0 10 69 67t83 57q5 0 5 -6z" />
    <glyph glyph-name="equal" unicode="=" horiz-adv-x="223" 
d="M203 181q-34 -16 -60 -16q-10 0 -29 5t-29 5q-4 0 -12 -2t-12 -2l-5 1q0 5 23 10q19 3 29 3q11 0 33 -4t34 -4q14 0 22 4h6zM183 124q-14 -16 -55 -16q-11 0 -31.5 4.5t-31.5 4.5q-4 0 -11.5 -1.5t-11.5 -1.5q-3 0 -6 1q44 13 54 13q11 0 34 -4t34 -4q4 0 12 2t12 2h1z
" />
    <glyph glyph-name="greater" unicode="&#x3e;" horiz-adv-x="218" 
d="M186 180q0 -14 -124 -129q-7 -6 -15 -6l-3 5q1 10 47 49t46 62q0 26 -40.5 73t-40.5 50q0 8 7 8q2 0 6.5 -5t65.5 -55q51 -42 51 -52z" />
    <glyph glyph-name="question" unicode="?" horiz-adv-x="394" 
d="M373 337q0 -50 -39 -81q-20 -15 -82 -40q-53 -23 -70 -44q-20 -26 -20 -43q0 -22 37 -22q14 0 18 17t6 17q8 0 8 -9q0 -15 -13.5 -25t-29.5 -10q-36 0 -36 32q0 42 48 78l90 60q49 39 49 88q0 29 -16 48t-45 19q-38 0 -67 -24.5t-29 -62.5q0 -43 39 -43q24 0 41.5 17
t20.5 40q1 11 6 11q2 0 3 -8q0 -28 -21.5 -48.5t-50.5 -20.5q-21 0 -35.5 14t-14.5 35q0 44 31.5 71.5t76.5 27.5q38 0 66.5 -28t28.5 -66zM168 21q0 -23 -37 -23q-19 0 -19 12q0 14 11 23.5t26 9.5q19 0 19 -22z" />
    <glyph glyph-name="at" unicode="@" horiz-adv-x="489" 
d="M492 314q0 -104 -117 -175q-58 -36 -99 -36q-14 0 -23.5 12t-9.5 27q0 14 9 29q-53 -65 -102 -65q-42 0 -42 56q0 72 55 122.5t128 50.5q39 0 46 -31l18 26h44l-111 -160q-16 -22 -16 -38q0 -8 22 -8q23 0 79 29q104 57 104 155q0 54 -35.5 84.5t-91.5 30.5
q-238 0 -300 -187q-8 -23 -8 -46q0 -66 49 -110q46 -42 114 -42q51 0 104 18q60 21 89 56q9 -1 9 -13q-37 -37 -92.5 -58t-110.5 -21q-72 0 -124.5 49.5t-52.5 120.5q0 26 9 50q70 198 312 198q64 0 102 -30q42 -33 42 -94zM328 292q0 34 -30 34q-45 0 -106 -70.5
t-61 -116.5q0 -20 22 -20q37 0 106 72t69 101z" />
    <glyph glyph-name="A" unicode="A" horiz-adv-x="689" 
d="M1016 610q-286 -261 -467 -568q86 17 139 78l6 1l5 -2l-1 -7q-58 -66 -155 -81l-18 -31h-60l17 29q-89 5 -154 55q-135 -96 -217 -96q-35 0 -62 18q-32 20 -32 54q0 14 11 31.5t24 17.5q34 0 34 -25q0 -4 -6 -9.5t-11 -5.5q-18 0 -26 6q-6 1 -9 -7v-11q-1 -57 81 -57
q77 0 205 90q-40 33 -67 85t-27 101q0 91 107 91q48 0 101 -42q50 -39 69 -85q216 193 239 211q140 112 274 159zM981 587q-126 -57 -252 -159q-9 -8 -222 -198q14 -41 14 -99q0 -25 -4 -48q185 282 464 504zM494 232q-19 52 -68.5 88.5t-104.5 36.5q-36 0 -60 -23.5
t-24 -60.5q0 -46 29 -97q26 -47 64 -78q69 50 164 134zM512 131q0 51 -14 92q-93 -82 -160 -131q65 -50 150 -54q24 38 24 93z" />
    <glyph glyph-name="B" unicode="B" horiz-adv-x="773" 
d="M902 587q-46 0 -99 -40q55 -41 55 -105q0 -105 -119 -140q18 -31 18 -75q0 -53 -23.5 -106.5t-63.5 -87.5q-57 -49 -113 -49q-38 0 -55 8q-25 12 -25 46q0 48 55 115t102 67q-18 -1 -59 -38q-87 -76 -87 -152q0 -34 52 -34q80 0 139 95q52 83 52 169q0 19 -6 38
q-21 -5 -39 -5q-15 0 -34 6q-25 6 -25 18q0 29 58 29q22 0 47 -34q87 27 87 129q0 53 -36 91q-65 -55 -138 -162q-112 -164 -121 -176q-74 -94 -157 -141q-114 -64 -214 -64q-51 0 -79 20q-32 22 -32 43q0 62 40 62q23 0 23 -24q0 -26 -30 -26q-11 0 -25 10q0 -76 106 -76
q63 0 131 40q81 47 155 130q36 40 122 155q75 101 129 155q41 41 77 66q-56 46 -143 46q-146 0 -244 -48q-64 -31 -105 -75q-51 -54 -51 -115q0 -43 25 -67.5t68 -24.5q86 0 155.5 59.5t69.5 116.5q0 60 -76 60q-93 0 -156 -99q-11 -16 -23 -45q1 42 50 98.5t129 56.5
q98 0 98 -75q0 -85 -105 -147q-62 -38 -142 -38q-47 0 -76 26.5t-29 73.5q0 121 160 201q101 51 252 51q94 0 162 -43q54 32 89 32q1 0 24 -1zM720 309q-13 27 -37 27h-9q-36 0 -36 -18q0 -4 13 -9t18 -5q28 0 51 5z" />
    <glyph glyph-name="C" unicode="C" horiz-adv-x="535" 
d="M737 547q0 -123 -230 -213q-112 -44 -228 -52q-55 -86 -55 -179q0 -40 16 -67q19 -32 57 -32q81 0 143 55.5t62 135.5q0 14 -13.5 27t-27.5 13q-55 0 -86 -22q-55 -37 -85 -103q0 46 53 92.5t99 46.5q72 0 72 -69q0 -65 -63.5 -127t-128.5 -62q-63 0 -98 36t-35 100
q0 74 45 154q-109 0 -172 53q-41 34 -41 73q0 53 18 83q34 61 122 90q69 24 155 24q31 0 50 -5q-67 0 -110 -4q-85 -10 -147 -51q-75 -50 -75 -126q0 -62 75 -99q60 -28 130 -28q56 93 157.5 175.5t204.5 117.5q49 16 79 16q22 0 39.5 -15.5t17.5 -37.5zM728 538
q0 20 -15 34t-35 14q-81 0 -216 -110q-117 -96 -176 -183q107 11 220 56q129 51 188 120q34 40 34 69z" />
    <glyph glyph-name="D" unicode="D" horiz-adv-x="731" 
d="M876 597q-61 -8 -144 -83q34 -55 34 -134t-33 -162q-38 -92 -132.5 -158t-192.5 -66q-65 0 -130 22q-80 -29 -162 -29q-28 0 -58 12q-39 15 -39 39q0 39 67 39q37 0 92 -16q3 -1 89 -31q104 40 180 139q7 10 117 186q70 113 146 165q-68 88 -223 88q-96 0 -161 -49
q-43 -33 -70 -80q-29 -51 -29 -102q0 -55 34 -84t89 -29q68 0 124 54.5t56 121.5q0 66 -76 66q-87 0 -149 -103q-10 -16 -25 -49q0 61 56.5 114.5t117.5 53.5q92 0 92 -80q0 -75 -59.5 -134t-135.5 -59q-67 0 -109 33q-46 37 -46 102q0 106 106 182q78 55 187 55
q163 0 233 -92q102 63 154 68zM754 390q0 62 -33 113q-80 -77 -154 -229q-88 -178 -274 -252q51 -16 114 -16q52 0 105 19q113 42 179 143q63 98 63 222zM253 25q-115 40 -151 40q-63 0 -63 -29q0 -17 35 -27q26 -7 49 -7q63 0 130 23z" />
    <glyph glyph-name="E" unicode="E" 
d="M571 549q0 -16 -9 -35q-29 -54 -99 -88q-57 -28 -130 -37l-2 -19l16 1q31 1 46.5 -12.5t15.5 -23.5q0 -19 -46 -19q-18 0 -34 12.5t-22 30.5q-94 -16 -169 -86q-81 -75 -81 -166q0 -105 107 -105q72 0 133.5 50t61.5 121q0 81 -73 81q-122 0 -166 -155q0 46 32.5 94
t74.5 62q32 10 62 10q37 0 61.5 -25t24.5 -62q0 -35 -8 -55q-22 -57 -81.5 -95.5t-120.5 -38.5q-60 0 -102 37q-45 38 -45 97q0 96 99 168q84 63 188 77v19q-12 -1 -24 -1q-161 0 -215 78q-17 24 -17 46q0 31 29 65q48 57 180 57q17 0 27 -1q-148 0 -200 -64
q-23 -29 -23 -55q0 -58 87 -90q67 -25 136 -24h21q5 79 67 140.5t141 61.5q57 0 57 -51zM558 547q0 40 -41 40q-57 0 -115 -67q-51 -59 -66 -121q64 6 136 46q86 48 86 102zM398 336q0 13 -23 20q-18 6 -33 6h-11q4 -41 32 -41q35 0 35 15z" />
    <glyph glyph-name="F" unicode="F" horiz-adv-x="673" 
d="M1114 637q-45 -81 -177 -81q-85 0 -235 31q-71 14 -122 14q-76 0 -143 -29q-75 -33 -111 -91q-26 -43 -26 -80q0 -46 28 -72t75 -26q74 0 145.5 59.5t71.5 132.5q0 18 -23 27q-17 7 -37 7q-104 0 -175 -75q-10 -11 -26 -35q8 54 79 90q61 31 122 31q74 0 74 -58
q0 -72 -81 -134q-77 -58 -150 -58q-51 0 -85 30t-34 81q0 57 45 108q37 42 97 70q77 37 194 37q61 0 182.5 -12.5t182.5 -12.5q81 0 129 46zM864 540q-55 -8 -131 -99q-51 -60 -99 -141q43 0 72 5q20 66 57 66q11 0 11 -20q0 -38 -55 -53q-6 -32 -6 -65l-20 -9q0 32 10 70
q-32 -6 -76 -6q-56 -96 -87 -136q-54 -69 -120 -107q-104 -59 -206 -59q-124 0 -173 62q-21 26 -21 49q0 10 10 17t21 7q22 0 22 -17q0 -21 -13 -27q-15 0 -26 8q1 -13 16 -32q46 -55 169 -55q166 0 370 289q-93 -5 -189 -43q91 52 198 56q70 99 115 147q86 92 151 93z
M763 349q0 13 -4 13q-26 0 -38 -54q42 11 42 41z" />
    <glyph glyph-name="G" unicode="G" horiz-adv-x="547" 
d="M732 533q0 -56 -68 -114q-49 -41 -119 -73q-128 -60 -262 -60q-20 -48 -20 -81q0 -57 56 -57q34 0 95 25.5t89 48.5q22 23 43 46q32 34 46 35l4 -2q-84 -89 -206 -309q48 6 97 47q22 19 76 80l9 1q-1 -11 -41 -55q-72 -79 -149 -86q-17 -25 -53 -72q-30 -35 -102 -98
q-102 -89 -208 -89q-73 0 -73 64q0 32 34 65q54 54 173 89l194 48q36 63 107 192q-83 -44 -135 -44q-44 0 -68 29t-24 74q0 25 6 51q-82 8 -135 39q-70 40 -70 111q0 31 21 64q64 99 223 99q21 0 34 -3h-12q-158 0 -225 -100q-22 -34 -22 -64q0 -114 190 -131
q34 111 154.5 204t234.5 93q106 0 106 -67zM720 536q0 49 -81 49q-103 0 -208 -96q-91 -82 -141 -189q94 1 203 39q117 42 177 104q50 52 50 93zM339 -30q-31 -6 -110 -24q-91 -21 -126 -34q-69 -24 -112 -65q-35 -33 -35 -63q0 -27 19 -41t47 -14q117 0 230 128
q59 68 87 113z" />
    <glyph glyph-name="H" unicode="H" horiz-adv-x="627" 
d="M875 542q0 -28 -22.5 -57.5t-48.5 -43.5q-91 -50 -226 -90q-50 -72 -99 -145q-70 -108 -70 -148q0 -53 63 -53q38 0 79 31q22 17 61 59q29 31 39 31q-1 -14 -49 -60q-42 -41 -63 -54q-33 -22 -63 -22q-93 0 -93 91q0 41 21 85q60 122 113 177q-33 -7 -66 -13
q-39 -8 -64 -19q-32 -44 -97 -132q-48 -64 -108 -118q-81 -74 -133 -74q-22 0 -40 14q-21 14 -21 36q0 70 61 143q48 56 127 87q51 20 150 40q20 27 61 79q35 43 140 143q-58 -27 -91 -27q-30 0 -41 23q-6 15 -7 50q-13 22 -67 22q-136 0 -136 -89q0 -71 95 -71q45 0 75 22
l26 22q0 -3 -4 -7q-34 -45 -96 -45q-110 0 -110 76q0 54 54 82q44 23 103 23q64 0 79 -24q2 -2 7 -43q2 -24 37 -24q38 0 79 23q23 14 58 44q27 23 34 23q-2 -8 -46 -48q-70 -64 -111 -121q-17 -23 -36 -54q-12 -22 -39 -63q17 6 135 32q85 103 135 152q101 95 166 95
q49 0 49 -60zM864 548q0 44 -41 44q-97 0 -239 -228q110 23 218 88q62 37 62 96zM319 293q-105 -20 -156 -43q-72 -34 -121 -104q-43 -61 -43 -93q0 -50 33 -50q63 0 135 77q35 38 97 130q22 27 55 83z" />
    <glyph glyph-name="I" unicode="I" horiz-adv-x="601" 
d="M891 598q-7 2 -8 2q-9 0 -56 -19q-86 -34 -150 -115q-58 -73 -90 -170q106 0 159 67q14 18 25 61q4 14 9 14q4 0 4 -10v-4q-2 -35 -26 -69q-23 -30 -56 -48q-47 -25 -122 -25q-81 -170 -203 -238q-101 -57 -196 -57q-52 0 -98 23q-55 28 -55 75q0 18 9.5 32t26.5 14
q38 0 38 -34q0 -31 -34 -31q-15 0 -26 11q0 -39 51 -62q40 -19 85 -19q69 0 138 44q66 42 128 110q68 76 89 142q-42 17 -70 48q-33 35 -33 76q0 37 24 78q61 109 369 109q4 0 34 -1.5t31 -1.5zM838 594q-13 1 -37 1q-99 0 -176 -21q-109 -29 -142 -92q-25 -46 -25 -80
q0 -29 25.5 -58.5t54.5 -37.5q44 112 116 179q65 59 184 109z" />
    <glyph glyph-name="J" unicode="J" horiz-adv-x="465" 
d="M764 598q-45 1 -110 -42q-113 -75 -200 -257h30q83 -1 133 64q8 11 16 36.5t15 35.5q2 3 4 3q5 0 5 -10l-1 -5q-1 -32 -27 -67q-24 -30 -56 -49q-38 -23 -122 -23q-34 -70 -86 -153q-61 -98 -101 -139q135 33 209 127l5 3l4 -4q0 -4 -3 -8q-78 -103 -226 -131
q-61 -98 -147 -169q-105 -87 -199 -87q-99 0 -99 64q0 56 85 101q61 32 175 62q73 18 145 36q75 107 195 306q-48 9 -80 35q-39 30 -39 75q0 37 30 84q42 65 163 94q86 20 196 20q56 0 86 -2zM713 594h-27q-101 1 -185 -22q-112 -29 -154 -93q-33 -52 -33 -90q0 -37 32 -60
q28 -21 67 -24q134 233 300 289zM205 -31q-153 -34 -224 -58q-161 -57 -161 -126q0 -51 88 -51q83 0 171 83q52 49 126 152z" />
    <glyph glyph-name="K" unicode="K" horiz-adv-x="794" 
d="M1180 558q0 -28 -27 -28q-18 0 -25 15q0 35 24 40q-16 8 -37 8q-81 0 -187 -145q-28 -38 -80 -74.5t-96 -47.5q10 -23 10 -42q0 -46 -34 -99q-32 -43 -63 -85q-34 -47 -34 -78q0 -18 17 -18q37 0 97 59q64 62 80 65q0 -6 -17 -22q-37 -35 -73 -70q-51 -45 -85 -45
q-50 0 -50 47t36 103q33 44 67 88q35 49 35 82v12q-8 -2 -15 -2q-17 0 -35 9q-21 10 -21 25q0 23 24 23q34 0 57 -44q54 18 116 89q92 104 108 117q69 59 149 59q38 0 51 -19q8 -13 8 -22zM855 603q0 -12 -8 -19q-64 -50 -93 -82q-47 -52 -158 -226q-80 -124 -186 -200
q-123 -87 -254 -87q-51 0 -88 17q-50 23 -50 67q0 41 42 41q9 0 16.5 -9t7.5 -18q0 -23 -29 -23q-13 0 -26 10q0 -75 139 -75q94 0 182 67q65 49 144 151q60 80 121 159q37 46 74 84q24 27 76 74q-34 -20 -65 -20q-40 0 -54 18q-6 7 -8 31q-1 20 -16 29q-23 12 -85 12
q-58 0 -95 -19q-49 -25 -49 -77q0 -78 90 -78q37 0 65 21q17 13 34 38q14 21 18 22q-5 -39 -43 -66t-78 -27q-42 0 -70 24q-31 25 -31 66q0 56 53 86q43 25 103 25q66 0 102 -16q28 -12 29 -49q2 -31 39 -31q42 0 94 42q26 22 51 43q6 -2 6 -5zM736 331q-10 38 -49 38
q-9 0 -9 -7q0 -15 14.5 -23.5t30.5 -8.5q6 0 13 1z" />
    <glyph glyph-name="L" unicode="L" horiz-adv-x="592" 
d="M897 555q0 -87 -168 -171q-132 -65 -250 -85q-55 -107 -82 -148q-52 -78 -115 -123q114 -27 144 -27q41 0 84 32q28 20 62 59q27 32 30 32q6 0 6 -3q0 -4 -5 -10q-57 -67 -75 -82q-45 -37 -102 -37q-56 0 -160 26q-26 -16 -63 -30q-41 -15 -66 -15q-115 0 -115 46
q0 23 18 34.5t42 11.5q52 0 178 -31q56 40 100 119l72 140q-17 -1 -33 -1q-85 0 -140 36q-66 42 -66 122q0 73 65 130q62 55 136 55q15 0 25 -1q-9 -3 -34 -7q-71 -9 -122 -59q-54 -52 -54 -122t57 -108q49 -33 122 -33q26 0 52 2q172 304 384 304q73 0 73 -56zM880 551
q0 48 -76 48q-10 0 -39 -7q-93 -26 -168 -109q-52 -59 -111 -170q105 17 235 81q159 80 159 157zM245 23q-38 10 -75 21q-48 12 -75 12q-58 0 -58 -32q0 -21 31 -31q22 -7 49 -7q67 0 128 37z" />
    <glyph glyph-name="M" unicode="M" horiz-adv-x="859" 
d="M965 605q-6 -23 -36 -79q-46 -80 -131 -244q-35 -63 -96 -193q-14 -35 -14 -60t34 -25q33 0 92.5 58t60.5 59l3 -4q-2 -7 -28 -35q-40 -45 -61 -61q-39 -31 -79 -31q-45 0 -45 51q0 78 85 227q37 65 137 215q15 20 41 62q2 6 7 16l-2 2q-9 -6 -76 -86
q-116 -140 -255 -333q-29 -42 -92 -122q-31 -35 -44 -35q-8 0 -8 16q0 85 125 285q93 137 186 275q-68 -75 -192 -226q-127 -155 -192 -226q-112 -124 -225 -124q-50 0 -87 18q-47 22 -47 67q0 42 43 42q9 0 16 -9.5t7 -18.5q0 -27 -32 -27q-11 0 -22 16q0 -77 139 -77
q59 0 131 55q53 41 120 119q47 58 94 117q69 82 172 203q27 35 87 98q13 10 23 10q-8 -21 -38 -71q-81 -136 -163 -271q-133 -226 -133 -246q0 -6 5 -6q7 0 44 46q62 83 185 249q52 70 237 284q7 9 23 22z" />
    <glyph glyph-name="N" unicode="N" horiz-adv-x="780" 
d="M1194 559q0 -12 -8 -21.5t-20 -9.5q-17 0 -25 15q-2 32 23 36q-14 16 -42 16q-62 0 -114 -39q-39 -28 -98 -107q-44 -60 -89 -121q-135 -178 -217 -298q-13 -21 -36 -46l-6 4q-2 8 7 14q24 18 38 64q12 40 25 165q11 103 92 288q-51 -101 -173 -242q-125 -145 -162 -179
q-115 -111 -200 -111q-157 0 -157 90q0 24 25 24q39 0 39 -26q0 -24 -35 -23q-1 -52 128 -52q55 0 110 39q73 50 194 188q100 113 174 215q49 67 85 142q3 6 6 6q5 0 5 -4q0 -5 -2 -9q-44 -85 -66 -266v1q-8 -87 -85 -266q49 88 133 199l146 190q26 35 51 69q31 39 59 62
q53 42 123 42q25 0 46 -12q26 -14 26 -37z" />
    <glyph glyph-name="O" unicode="O" horiz-adv-x="435" 
d="M645 522q0 -86 -73 -101q4 2 11 6q48 29 48 80q0 74 -95 74q-101 0 -216 -82q-108 -77 -182 -191q-77 -118 -77 -216q0 -91 65 -91q79 0 178 81q91 75 158 182.5t67 185.5q0 64 -49 64q-66 0 -138 -65q-66 -60 -87 -128q-2 -6 -12 -16l-2 2q-1 4 -1 10q0 25 45 85
q92 123 192 123q64 0 64 -74q0 -82 -68 -192.5t-162 -186.5q-101 -83 -185 -83q-92 0 -92 127q0 106 69 209q60 92 157 160q155 109 282 109q33 0 66 -19q37 -22 37 -53z" />
    <glyph glyph-name="P" unicode="P" horiz-adv-x="722" 
d="M911 587q-56 -6 -108 -46q68 -43 68 -108q0 -58 -43.5 -98.5t-101.5 -40.5q-19 0 -31 13t-12 32q0 24 21.5 59t42.5 41q-17 -20 -33 -41q-19 -25 -19 -49q0 -45 38 -45q42 0 76 44q33 41 33 84q0 57 -54 96q-64 -55 -136 -162q-106 -154 -121 -174q-74 -93 -157 -139
q-116 -64 -222 -64q-60 0 -93 22q-39 24 -39 51q0 28 6 38q8 14 35 14q8 0 15.5 -9.5t7.5 -17.5q0 -23 -29 -23q-13 0 -26 10q1 -75 139 -75q114 0 228 108q57 55 189 229q115 151 187 202q-62 37 -135 37q-147 0 -249 -46q-66 -30 -111 -73q-57 -55 -57 -114q0 -43 31 -66
q28 -19 72 -19q77 0 149 57t72 108q0 55 -84 55q-50 0 -99 -31q-44 -28 -75 -72q9 45 69 81q56 32 105 32q99 0 99 -64q0 -68 -86 -126q-78 -53 -150 -53q-49 0 -81 23q-35 26 -35 74q0 62 56 119q44 46 112 78q103 49 262 49q82 0 151 -37q61 38 123 37z" />
    <glyph glyph-name="Q" unicode="Q" horiz-adv-x="572" 
d="M676 443q0 -60 -28 -107q-41 -69 -185 -172q-123 -88 -219 -134q78 -27 125 -27q66 0 143 58q36 29 72 59q0 -8 -5 -15q-38 -49 -95 -81q-60 -34 -119 -34q-46 0 -135 33q-71 -32 -111 -32q-100 0 -100 41q0 31 84 31q45 0 121 -26q83 42 198 132q122 95 174 162
q46 60 46 111q0 130 -129 130q-82 0 -144 -38q-64 -41 -92 -115q-13 -36 -13 -68q0 -42 22 -67.5t63 -25.5q65 0 121 45q60 49 60 112q0 56 -65 56q-38 0 -77 -40q-33 -35 -48 -76q10 45 44 83q38 42 81 42q77 0 77 -66q0 -69 -61.5 -118t-132.5 -49q-100 0 -100 100
q0 54 31 107q29 49 75 83q65 48 156 48q71 0 116 -35q50 -38 50 -107zM210 30q-64 23 -113 23q-64 0 -64 -21q0 -28 74 -28q47 0 103 26z" />
    <glyph glyph-name="R" unicode="R" horiz-adv-x="799" 
d="M919 587q-52 -5 -97 -39q59 -41 59 -102q0 -64 -54 -114q-48 -45 -115 -59q2 -9 2 -20q0 -46 -42 -110.5t-42 -96.5q0 -41 31 -41q28 0 64 30q19 16 56 56q28 30 35 30q0 -26 -63.5 -78.5t-91.5 -52.5q-31 0 -49 27q-15 23 -15 56q0 44 38 102q51 76 58 94q-16 -4 -28 -4
t-29 7t-17 18q0 28 41 28q38 0 50 -35q54 17 92.5 62.5t38.5 100.5q0 51 -39 87q-65 -56 -138 -162q-113 -165 -122 -176q-75 -95 -158 -142q-113 -64 -214 -64q-88 0 -122 32q-26 25 -26 48q0 45 46 45q9 0 17 -9.5t8 -18.5q0 -22 -30 -22q-13 0 -26 10q-1 -74 133 -74
q103 0 225 106q88 77 171 194q126 179 222 244q-58 41 -143 41q-124 0 -211 -47q-142 -78 -142 -191q0 -87 93 -87q77 0 136.5 55t59.5 109q0 56 -56 56q-52 0 -101 -32q-46 -28 -77 -74q8 45 71 81q56 32 106 32q72 0 72 -59q0 -69 -70.5 -125.5t-140.5 -56.5q-51 0 -80 25
q-32 27 -32 76q0 62 47 119q39 48 102 82q93 51 223 51q91 0 163 -42q56 31 111 30zM697 286q0 23 -35 23q-30 0 -30 -20q0 -6 13 -10q10 -3 17 -3q17 0 34 4z" />
    <glyph glyph-name="S" unicode="S" horiz-adv-x="565" 
d="M879 570q0 -62 -128 -156q-119 -87 -224 -115q-66 -123 -89 -157q-51 -77 -110 -114q-71 -44 -172 -44q-61 0 -96 24t-35 49q0 63 45 63q12 0 19 -10.5t7 -22.5q0 -30 -31 -30q-3 0 -26 12q-1 -69 129 -69q102 0 187 100q31 37 120 187q-28 -4 -54 -4q-76 0 -128 41
q-57 45 -57 118q0 87 126 142q100 43 201 43q19 0 32 -2q-7 -5 -34 -7q-112 -10 -190 -43q-115 -48 -115 -134q0 -10 3 -23q27 -118 171 -118q27 0 55 5q84 140 138 200q99 109 204 109q21 0 36.5 -11.5t15.5 -32.5zM865 579q0 10 -15 16q-11 4 -22 4q-94 0 -178 -100
q-43 -53 -114 -183q88 24 199 101q130 91 130 162z" />
    <glyph glyph-name="T" unicode="T" horiz-adv-x="630" 
d="M1117 637q-45 -81 -177 -81q-85 0 -235 31q-71 14 -122 14q-76 0 -143 -29q-75 -33 -111 -91q-26 -43 -26 -80q0 -46 28 -72t74 -26q75 0 146.5 59.5t71.5 132.5q0 18 -23 27q-17 7 -37 7q-104 0 -175 -75q-10 -11 -26 -35q8 54 79 90q61 31 122 31q74 0 74 -58
q0 -72 -81 -134q-77 -58 -151 -58q-51 0 -84.5 30t-33.5 81q0 57 45 108q37 42 97 70q77 37 194 37q61 0 182.5 -12.5t182.5 -12.5q81 0 129 46zM864 540q-78 -6 -233 -264q-76 -126 -196 -206q-131 -86 -269 -86q-52 0 -93 15q-58 21 -58 64q0 58 53 58q29 0 29 -27
q0 -13 -11.5 -23t-24.5 -10q-9 0 -27 9q-1 -74 133 -74q92 0 205 70q110 68 225 236q164 239 260 238h7z" />
    <glyph glyph-name="U" unicode="U" 
d="M631 577l-331 -466q-40 -57 -40 -89q0 -13 23 -13q26 0 79 56t61 56q-1 -12 -36 -50q-72 -77 -117 -77q-34 0 -34 25q0 63 41 116q-22 -27 -57 -62q-76 -82 -132 -82q-70 0 -70 63q0 67 78 169q72 86 144 173q78 98 78 156q0 55 -79 55q-64 0 -111 -29q-87 -54 -87 -121
q0 -58 70 -58q60 0 102 48q37 44 47 107q0 5 4 15q2 -6 2 -16q0 -63 -46.5 -114.5t-108.5 -51.5q-33 0 -56 13q-27 16 -27 47q0 77 70 129q63 47 143 47q109 0 109 -92q0 -53 -38 -110q-19 -29 -144 -180q-105 -126 -123 -171q-6 -16 -6 -30q0 -35 49 -35t136 89
q57 58 112 134l254 349h41z" />
    <glyph glyph-name="V" unicode="V" horiz-adv-x="419" 
d="M853 555q0 -31 -30 -31q-17 0 -24 16q-2 31 23 35q-13 16 -38 16q-60 0 -141 -66q-59 -49 -137 -141q-53 -65 -106 -129q-141 -165 -316 -264q57 82 111 179q42 76 83 151q49 86 97 143q23 29 72 84q-68 -59 -120 -59q-18 0 -34 20q-2 3 -7 29q-3 23 -20.5 34.5
t-74.5 11.5q-49 0 -82 -26q-35 -29 -35 -77q0 -38 22.5 -62.5t59.5 -24.5q62 0 101 50q6 9 8 9l6 -1l-1 -8q-43 -62 -114 -62q-42 0 -69.5 29t-27.5 72q0 55 43 87q38 29 96 29q61 0 89 -18q14 -9 25 -42q9 -27 28 -27q36 0 72 24q21 14 51 46q25 27 33 30q-1 -5 -7 -15
q-115 -182 -181 -306q-22 -41 -62 -101q-39 -51 -109 -157q172 136 247 227q141 171 179 209q132 134 222 134q24 0 44 -12q24 -13 24 -36z" />
    <glyph glyph-name="W" unicode="W" horiz-adv-x="572" 
d="M1040 556q0 -13 -8 -23t-20 -10q-18 0 -25 17v5q0 14 5 22t18 7q-15 18 -39 18q-101 0 -307 -219q-59 -72 -186 -208q-122 -115 -231 -176q52 57 105 147q6 10 87 159q55 100 188 268q-158 -164 -284 -307q-156 -177 -310 -265q107 137 188 319q43 97 179 232
q-47 -42 -113 -42q-28 0 -32 19.5t-6 38.5q-7 20 -39 20q-173 0 -173 -119q0 -62 58 -62q45 0 69 8q12 5 40 27q25 21 29 21q-1 -5 -4 -10q-39 -59 -135 -59q-29 0 -50 21.5t-21 50.5q0 59 51 98q47 36 108 36q84 0 93 -27q3 -16 5 -32q5 -20 21 -20q33 0 75 26q29 18 61 48
q27 26 26 26q7 0 7 -3q0 -4 -6 -11q-100 -110 -200 -300q-83 -154 -192 -268q89 68 166 138q55 49 91 93q63 75 170 190q143 154 167 155q0 -5 -6 -11q-49 -57 -97 -149q-40 -79 -79 -159q-64 -126 -193 -257q146 94 264 235q282 339 417 339q24 0 44 -11q24 -14 24 -36z
" />
    <glyph glyph-name="X" unicode="X" horiz-adv-x="552" 
d="M838 559q0 -69 -149 -150q-104 -58 -213 -91q-71 -103 -85 -124q-54 -88 -54 -131q0 -59 73 -59q29 0 69 32q22 17 61 59q30 33 37 33l1 -5q0 -3 -9 -15q-98 -117 -166 -117q-87 0 -87 62q0 56 23 102q-47 -53 -119 -103q-86 -59 -140 -59q-27 0 -47.5 15.5t-20.5 41.5
q0 46 53 103q60 66 164 108q69 28 191 56q12 13 35 44q41 56 50 74q24 43 24 85q0 77 -113 77q-74 0 -140 -39q-76 -45 -76 -114q0 -60 68 -60q87 0 151 85q26 35 26 50.5t6 15.5q3 0 3 -10q0 -22 -25 -61.5t-69.5 -64.5t-92.5 -25q-80 0 -80 67q0 30 19 62q29 52 90 79
q55 25 120 25q62 0 91 -16q38 -22 38 -80q0 -35 -13 -69q49 54 121 100q85 54 142 54q43 0 43 -37zM825 557q0 29 -31 29q-23 0 -61 -17q-81 -34 -144 -99q-47 -47 -107 -140q107 36 201 88q142 77 142 139zM411 303q-41 -7 -123 -35q-89 -29 -136 -58q-64 -38 -105 -102
q-20 -31 -20 -54q0 -21 17 -34t38 -13q52 0 154 90q84 75 130 139q31 44 45 67z" />
    <glyph glyph-name="Y" unicode="Y" horiz-adv-x="531" 
d="M758 577l-216 -333q-32 -50 -190 -253q52 2 101 35q30 20 68 61q30 33 37 33q-1 -11 -36 -50q-83 -91 -178 -91q-60 -79 -157 -158q-119 -96 -190 -96q-73 0 -73 62q0 98 223 156l161 43l183 255q-69 -59 -91 -75q-63 -44 -105 -44q-80 0 -80 67q0 97 171 239
q50 41 50 88q0 31 -21.5 50t-52.5 19q-82 0 -142 -47q-63 -50 -63 -96q0 -49 67 -49q60 0 104 43q37 36 49 89q1 7 9 15q1 -6 1 -15q0 -21 -18 -53q-16 -27 -35 -45q-47 -46 -112 -46q-78 0 -78 59q0 23 15 49q30 51 88 80q54 28 116 28q94 0 94 -102q0 -45 -54 -109
q-50 -54 -99 -109q-54 -64 -54 -109q0 -34 43 -34q24 0 65 22q55 30 116 90q55 54 95 112l147 219h42zM300 -29q-363 -75 -363 -184q0 -49 57 -49q72 0 194 114q48 45 60 57q32 33 52 62z" />
    <glyph glyph-name="Z" unicode="Z" horiz-adv-x="519" 
d="M738 581q0 -10 -12 -24q-59 -65 -193 -67q-64 -75 -112 -165q31 -9 53 -9q25 0 34 7q13 11 19 13q0 -3 -4 -8q-30 -36 -73 -36q-4 0 -44 9q-26 -51 -78 -96q-34 -29 -102 -74q94 43 147 43q66 0 66 -49q0 -24 -32 -55.5t-32 -52.5q0 -8 10 -8q32 0 90 57.5t59 57.5
q4 0 4 -8q0 -3 -42 -48q-67 -74 -114 -74q-29 0 -29 26q0 36 24 63q36 40 41 49q1 32 -46 32q-35 0 -83.5 -16t-77.5 -37q-37 -34 -75 -69q-55 -50 -78 -50q-16 0 -16 18q0 39 68 78q26 15 102 47q10 4 57 51q58 58 91 118q-13 10 -59 10q-35 0 -57 -20l-6 -1q7 20 31 33.5
t46 13.5q25 0 59 -10q64 98 126 159q-72 2 -81 51q-1 6 -4 20q-9 23 -84 23q-57 0 -93 -25q-43 -29 -43 -83q0 -30 22 -54t51 -24q62 0 102 28q17 14 33 29l3 -2q0 -3 -3 -8q-25 -36 -60 -49q-28 -11 -76 -11q-34 0 -60 28.5t-26 63.5q0 57 48 90q42 29 102 29q81 0 105 -25
q2 -2 20 -46q9 -25 54 -25q39 37 91 69q66 40 105 40q32 0 32 -27zM727 581q0 17 -24 17q-71 0 -161 -98q113 5 171 60q14 13 14 21z" />
    <glyph glyph-name="bracketleft" unicode="[" horiz-adv-x="220" 
d="M458 606l-10 -16h-78l-451 -642h99l-5 -15h-123l467 673h101z" />
    <glyph glyph-name="backslash" unicode="\" horiz-adv-x="253" 
d="M236 -51q0 -18 -6 -18q-5 0 -8 20q-14 108 -33 165q-15 45 -62 155q-52 118 -71 173q-34 96 -34 154q0 9 1 13l7 2q2 -3 3 -15q8 -78 68 -213q74 -164 91 -212q44 -123 44 -224z" />
    <glyph glyph-name="bracketright" unicode="]" horiz-adv-x="361" 
d="M457 606l-461 -673h-121l11 15h98l440 642h-79l12 16h100z" />
    <glyph glyph-name="asciicircum" unicode="^" horiz-adv-x="245" 
d="M212 216q0 -9 -6 -9t-6 8q0 12 -9 45.5t-15 40.5q-10 -1 -54 -41t-58 -42q1 7 58 60.5t63 53.5t16.5 -50t10.5 -66z" />
    <glyph glyph-name="underscore" unicode="_" horiz-adv-x="260" 
d="M260 0h-260v13h260v-13z" />
    <glyph glyph-name="grave" unicode="`" horiz-adv-x="151" 
d="M127 258q-6 -1 -10 3q-25 22 -75 64q-9 8 -9 15q0 12 12 12q7 0 15 -9q27 -34 64 -76q4 -4 3 -9z" />
    <glyph glyph-name="a" unicode="a" horiz-adv-x="296" 
d="M313 120q0 -4 -40 -48q-74 -81 -119 -81q-32 0 -32 37q0 15 8 31q-53 -66 -102 -66q-42 0 -42 59q0 70 58 121q55 50 126 50q38 0 44 -31l20 26h43l-111 -159q-15 -22 -15 -39q0 -8 17 -8q29 0 83.5 55.5t55.5 55.5q6 0 6 -3zM207 180q0 34 -30 34q-45 0 -106 -71
t-61 -117q0 -20 21 -20q33 0 84 50q39 38 66 80q26 38 26 44z" />
    <glyph glyph-name="b" unicode="b" horiz-adv-x="264" 
d="M325 471l-250 -358q-34 -50 -34 -96q0 -14 26 -14q50 0 116 110q0 108 33 108q22 0 22 -24q0 -35 -36 -89q9 -7 39 -7q13 0 24 14l9 2q1 -26 -46 -26q-12 0 -35 6q-70 -109 -138 -109q-42 0 -42 52q0 56 52 122q-28 -27 -63 -57l-4 2l-2 4l4 5q15 18 53 55q35 34 51 57
l180 243h41z" />
    <glyph glyph-name="c" unicode="c" horiz-adv-x="199" 
d="M215 122q0 -16 -43 -58q-37 -36 -59 -50q-30 -20 -64 -20q-24 0 -40 14.5t-16 37.5q0 103 82 153q36 21 63 21q17 0 31.5 -9t14.5 -25q0 -11 -7 -21t-19 -10q-16 0 -15 26q6 14 29 8q0 13 -14 19q-40 0 -90 -64t-50 -105q0 -35 31 -35q63 0 153 114z" />
    <glyph glyph-name="d" unicode="d" horiz-adv-x="319" 
d="M480 470l-295 -420q-13 -19 -13 -30q0 -12 16 -12q28 0 85.5 57.5t62.5 57.5q0 -15 -42 -58q-35 -35 -58 -51q-29 -23 -55 -23q-17 0 -31 11.5t-14 29.5q0 8 4 14q-46 -51 -102 -51q-25 0 -38 24q-11 19 -11 46q0 65 67 110q59 40 127 40q24 0 31 -14q5 -10 5 -36
l219 305h42zM208 181q0 25 -27 25q-24 0 -64 -31q-17 -13 -48 -41q-17 -19 -32 -53.5t-15 -59.5q0 -13 17 -13q47 0 96 50q40 40 65 93q8 18 8 30z" />
    <glyph glyph-name="e" unicode="e" horiz-adv-x="191" 
d="M202 117q-1 -4 -3 -8q-26 -39 -65 -74q-49 -43 -85 -43q-57 0 -57 74q0 56 45.5 105t101.5 49q42 0 42 -27q0 -34 -50 -53q-21 -8 -79 -18q-30 -59 -30 -86q0 -28 30 -28q35 0 88 53l58 58zM172 193q0 15 -24 15q-29 0 -54.5 -23t-35.5 -53q34 0 69 14q45 18 45 47z" />
    <glyph glyph-name="f" unicode="f" horiz-adv-x="223" 
d="M423 473q0 -46 -103 -132q-64 -54 -146 -107l-110 -168q19 -12 55 -12q46 0 100 62l10 2q-1 -25 -42 -50.5t-70 -25.5q-39 0 -61 11q-148 -208 -221 -320h-45l118 170q67 99 110 176q-7 9 -6 37l-7 -7l-8 1l-3 3l19 21q9 57 30 57q18 0 16 -18q21 16 65 45l129 159
q48 62 86 98q32 30 56 30q28 0 28 -32zM416 480q0 12 -20 12q-31 0 -111 -104q-51 -69 -102 -137q109 77 122 88q71 57 99 109q12 21 12 32zM111 198q-15 -8 -54 -41q-4 -25 -21 -70z" />
    <glyph glyph-name="g" unicode="g" horiz-adv-x="270" 
d="M295 119q1 -20 -83 -90q-42 -36 -98 -50q-55 -83 -87 -121q-49 -59 -109 -102q-43 -31 -65 -31q-26 0 -26 31q0 25 42 80q33 44 106 89q33 21 81 43l45 65q-12 -12 -35 -24q-25 -15 -38 -15q-42 0 -42 48q0 53 65.5 118.5t119.5 65.5q18 0 39 -34l22 25h44l-152 -223
q92 41 162 126l9 3v-4zM201 180q0 11 -8 21.5t-19 10.5q-43 0 -97 -72.5t-54 -119.5q0 -15 12 -15q32 0 93 71q53 62 73 104zM44 -50q-110 -50 -162 -116q-45 -58 -45 -83q0 -15 18 -15q35 0 106 89q54 70 83 125z" />
    <glyph glyph-name="h" unicode="h" horiz-adv-x="323" 
d="M333 120q0 -7 -5 -13q-98 -117 -156 -117q-28 0 -28 26q0 31 6.5 49.5t54.5 68.5q45 46 45 63q0 12 -14 12q-70 0 -141 -75q-24 -26 -101 -134h-36l131 185q-29 -24 -83 -76l-12 -2l-2 4q3 7 57 57q59 53 68 66l174 239h37q-103 -145 -210 -303q52 32 58 34q32 16 65 16
q29 0 29 -43q0 -29 -49.5 -89t-49.5 -72q0 -10 12 -10q28 0 83 56q59 60 61 61z" />
    <glyph glyph-name="i" unicode="i" horiz-adv-x="165" 
d="M221 333q0 -34 -37 -34q-19 0 -19 12q0 34 36 34q16 0 20 -12zM180 117q-3 -13 -84 -91q-34 -32 -63 -32q-11 0 -22 7t-11 17q0 44 17 78q13 25 48 63q-25 -23 -61 -51l-3 3q-1 9 46 53q30 26 59 53l47 1l-72 -94q-61 -83 -61 -103q0 -11 19 -11q24 0 77 55t61 56z" />
    <glyph glyph-name="j" unicode="j" horiz-adv-x="175" 
d="M257 333q0 -34 -37 -34q-19 0 -19 12q0 34 35 34q16 0 21 -12zM199 117q0 -3 -5 -9q-56 -63 -85 -85q-48 -37 -110 -46q-55 -76 -128 -150q-102 -104 -149 -104q-16 0 -28.5 12.5t-12.5 28.5q0 49 73 100q24 16 116 65q27 14 82 41q83 117 145 207q-26 -22 -77 -68
l-11 -3v4q-1 10 49 51q31 25 63 50l4 7h45q-72 -107 -163 -229q55 10 104 51q19 16 82 83q6 -1 6 -6zM-60 -46q-102 -48 -148 -76q-101 -63 -101 -112q0 -33 35 -33q46 0 120 89q25 31 94 132z" />
    <glyph glyph-name="k" unicode="k" horiz-adv-x="302" 
d="M336 473l-332 -473h-42l145 205q-14 -7 -59 -53q-41 -43 -53 -45v4q0 3 2 6q18 22 50 52q49 45 52 49q49 49 103 123l92 132h42zM321 202q0 -11 -6 -11q-7 0 -11 5v4q0 6 3 9q0 4 -6 4q-20 0 -35 -31q-8 -18 -63 -30q20 -15 20 -37q0 -23 -35 -59.5t-35 -43.5q0 -6 9 -6
q28 0 89 62q31 31 62 63l4 -3q-1 -22 -64 -78t-88 -56q-30 0 -30 32q0 29 32 63.5t32 44.5q0 7 -11 15q-9 -3 -24 -3q-31 0 -31 14q6 11 20 11q25 0 39 -11q30 0 60.5 29t60.5 29q8 -4 8 -16z" />
    <glyph glyph-name="l" unicode="l" horiz-adv-x="171" 
d="M332 473l-250 -361q-48 -70 -48 -93q0 -7 7 -7q26 0 79 53t61 54q0 -19 -75 -87q-45 -41 -82 -41q-28 0 -28 41q0 34 93 153q-10 -9 -86 -81l-6 3v5q0 2 4 7q30 28 88 85q49 51 106 130q48 70 96 139h41z" />
    <glyph glyph-name="m" unicode="m" horiz-adv-x="472" 
d="M485 118q0 -4 -8 -12q-62 -65 -66 -69q-48 -43 -80 -43q-15 0 -25 15t-10 31q0 39 49.5 99.5t49.5 66.5t-13 6q-40 0 -112 -88q-46 -62 -92 -125h-49q137 189 137 204q0 9 -11 9q-40 0 -111 -87q-15 -18 -91 -126h-48q144 201 144 205q0 5 -9 5q-20 0 -68 -41
q-33 -29 -65 -58l-9 -1q0 19 63.5 66t84.5 47q26 0 26 -21q0 -19 -16 -47q62 68 101 68q35 0 35 -22q0 -29 -9 -45q65 66 103 66q23 0 23 -31q0 -38 -44.5 -89.5t-44.5 -75.5q0 -15 24 -15q21 0 75 56.5t62 56.5q4 0 4 -5z" />
    <glyph glyph-name="n" unicode="n" horiz-adv-x="344" 
d="M354 116q-4 -17 -73 -82q-42 -40 -73 -40q-17 0 -28 14t-11 32q0 37 49 97.5t49 68.5q0 6 -11 6q-68 0 -202 -213l-50 1q140 193 140 202q0 6 -8 6q-24 0 -76 -49q-56 -54 -61 -56l-3 3q0 19 63.5 67.5t85.5 48.5q24 0 24 -24q0 -17 -10 -42q59 65 101 65q22 0 22 -32
q0 -38 -43 -86t-43 -85q0 -8 17 -8q27 0 81 55t55 55z" />
    <glyph glyph-name="o" unicode="o" horiz-adv-x="218" 
d="M231 119q1 -18 -25 -23q-19 -3 -39 0q-19 -40 -52 -68q-38 -33 -77 -33q-47 0 -47 70t77 130q32 26 83 26q39 0 39 -47q0 -42 -18 -69h23q8 0 18.5 6.5t17.5 7.5zM181 173q0 38 -31 38q-39 0 -84.5 -70.5t-45.5 -111.5q0 -25 25 -25q46 0 92 62q44 59 44 107z" />
    <glyph glyph-name="p" unicode="p" horiz-adv-x="331" 
d="M338 121q0 -16 -72 -86q-41 -41 -75 -41q-49 0 -49 67q0 20 35 45t56 65q9 18 9 29q0 13 -14 13q-30 0 -77 -44q-33 -33 -60 -72l-253 -364h-46q167 243 301 432q20 31 65 90q-50 -48 -149 -144l-14 -3q0 7 2 11q35 34 87 84q48 46 105 99q14 13 30 36q14 20 27 39h21
q-47 -78 -140 -209q42 32 48 36q29 18 56 18q30 0 30 -49q0 -39 -22 -65q-6 -7 -41 -36q-21 -18 -21 -36q0 -27 23 -27q21 0 69 45q37 34 60 65z" />
    <glyph glyph-name="q" unicode="q" horiz-adv-x="287" 
d="M294 121q1 -7 -2 -13q-11 -19 -109 -120q-63 -64 -126 -129q-36 -47 -113 -137h-43l129 191q25 40 80 116q-14 -10 -46.5 -22.5t-48.5 -12.5q-42 0 -42 45q0 40 40 94q63 88 163 88q31 0 36 -40q14 12 39 37l31 -1l-183 -268q-35 -52 -67 -92q43 44 169 171q27 30 84 89
q4 4 9 4zM200 188q0 22 -24 22q-46 0 -105 -70.5t-59 -117.5q0 -12 7 -12q95 0 168 141q13 24 13 37z" />
    <glyph glyph-name="r" unicode="r" horiz-adv-x="179" 
d="M192 121q0 -11 -42 -54q-34 -35 -53 -52q-28 -23 -50 -23q-26 0 -26 30q0 75 104 157q-1 12 -12.5 15t-22.5 6q-29 -37 -39 -49q-23 -27 -44 -43l-10 -1q-1 5 3 9q28 30 83 92q-4 6 -4 12q0 25 25 25q21 0 21 -27q0 -9 -10 -12q31 -25 31 -43q-30 -35 -59 -70
q-44 -53 -44 -70q0 -11 17 -11t71.5 56t58.5 57z" />
    <glyph glyph-name="s" unicode="s" horiz-adv-x="168" 
d="M174 119q0 -29 -51 -40q-7 -35 -47 -59q-36 -22 -74 -22q-11 0 -24.5 9.5t-13.5 20.5q0 31 19 31q6 0 12.5 -6.5t6.5 -12.5t-6 -11.5t-11 -5.5q-7 0 -11 6q0 -23 28 -23q35 0 71 62q31 56 31 95q0 23 -12 37q-24 -27 -47 -53q-38 -41 -50 -41q0 8 3 13q12 17 48 49.5
t50 51.5q4 7 14 17t16 10q10 0 10 -11q0 -6 -37 -28q35 -42 35 -82q0 -15 -8 -33q15 0 29.5 12.5t18.5 13.5z" />
    <glyph glyph-name="t" unicode="t" horiz-adv-x="175" 
d="M285 401l-83 -119h14q9 1 15 1q29 0 29 -7t-67 -6q-42 -57 -84 -115q-82 -117 -82 -132q0 -13 19 -13q23 0 77.5 55t56.5 55l5 -3q-3 -20 -62.5 -71t-79.5 -51q-32 0 -32 39q0 41 29 87q10 17 57 75q-26 -26 -90 -88l-9 -1q-1 5 3 9q9 10 76 75q51 49 69 79h-14
q-9 -1 -14 -1q-25 0 -25 7t60 6l86 119h46z" />
    <glyph glyph-name="u" unicode="u" horiz-adv-x="332" 
d="M343 121q0 -22 -60 -75t-83 -53q-43 0 -43 26q0 32 10 52q-76 -77 -130 -77q-38 0 -38 47q0 25 24 65q6 9 41 59l-32 -34q-24 -24 -34 -25v5q0 4 45 49q27 27 54 53l2 5h46q-35 -48 -69 -96q-46 -70 -46 -100q0 -14 17 -14q46 0 121 84q22 26 97 126h42q-32 -46 -63 -92
q-62 -92 -62 -105q0 -11 16 -11q33 0 86.5 55.5t58.5 55.5z" />
    <glyph glyph-name="v" unicode="v" horiz-adv-x="295" 
d="M310 118q0 -8 -12 -14.5t-20 -6.5q-20 0 -44 11q-26 -33 -71 -70q-54 -45 -84 -45q-17 0 -27 18q-8 15 -8 33q0 41 32 83q28 35 55 70v4q1 7 -4 8q-25 0 -120 -101l-11 -2v4q0 13 57 61t74 48q21 0 21 -26q0 -37 -41.5 -91.5t-41.5 -82.5q0 -15 16 -15q31 0 79 43
q37 32 65 69q1 29 2 57q4 46 17 46q10 0 17.5 -9.5t7.5 -19.5q0 -28 -28 -72q11 -10 28 -10q15 0 24.5 6.5t14.5 6.5z" />
    <glyph glyph-name="w" unicode="w" horiz-adv-x="471" 
d="M479 117q1 -24 -39 -24q-34 0 -61 10v1q-62 -62 -74 -72q-47 -37 -93 -37q-50 0 -50 36q0 21 18 54q-79 -91 -139 -91q-40 0 -40 60q0 43 77 127q-35 -38 -80 -78l-4 4q0 7 5 13q35 32 102 97v1h50q-66 -84 -74 -96q-50 -70 -50 -101q0 -14 20 -14q29 0 87 48
q49 40 74 73l69 90h45l-72 -96q-48 -70 -48 -101q0 -13 24 -13q26 0 84 42t65 67q3 10 8 49q4 32 11.5 45.5t16.5 13.5q10 0 18 -7.5t8 -17.5q0 -27 -47 -85q6 -9 40 -9q19 0 28 5q13 8 17 9z" />
    <glyph glyph-name="x" unicode="x" horiz-adv-x="301" 
d="M311 194q0 -13 -10 -13q-11 0 -13 6q-1 6 2 12t9 6l-2 6q-9 6 -23 6q-31 0 -88.5 -74.5t-57.5 -107.5q0 -30 21 -30q31 0 68 30q21 17 55 56q27 30 33 30l4 -2q-1 -22 -85 -95q-39 -34 -77 -34q-17 0 -27.5 13.5t-10.5 30.5q0 7 3 14q-40 -51 -107 -51q-14 0 -27.5 8.5
t-13.5 21.5q0 12 15 12q13 0 12 -14v-5q-3 -4 -10 -4l-3 -2q8 -8 25 -8q27 0 57 27t68 80q45 63 45 91q0 10 -8 10q-32 0 -72 -28q-21 -15 -60 -53q-30 -29 -38 -29l-2 5q0 4 5 9q102 106 171 106q15 0 15 -21q0 -17 -5 -34q54 54 94 54q38 0 38 -29z" />
    <glyph glyph-name="y" unicode="y" horiz-adv-x="359" 
d="M372 115q-3 -8 -38 -46q-64 -71 -141 -92q-25 -33 -76 -97q-39 -46 -92 -93q-72 -64 -103 -64q-32 0 -32 45q0 25 29 64q32 43 119 90q41 22 98 46l50 72q-12 -10 -47 -28t-47 -18q-40 0 -40 45q0 57 76 138q9 8 24 26q-1 5 -13 5q-20 0 -77 -51t-65 -52v4q0 15 63 63
t82 48q33 0 33 -23q0 -27 -50 -90.5t-50 -77.5q0 -25 22 -25q20 0 70 38q44 35 61 56l89 119h43q-51 -75 -157 -223q40 13 78 44q22 18 53 52q24 26 32 29q4 0 6 -4zM124 -50q-15 -2 -87 -42q-134 -73 -134 -149q0 -24 22 -24q32 0 108 90q65 77 91 125z" />
    <glyph glyph-name="z" unicode="z" horiz-adv-x="301" 
d="M326 120q0 -10 -50 -63q-59 -63 -107 -63q-44 0 -44 22q0 9 7.5 20.5t7.5 14.5q0 9 -19 9q-24 0 -71 -18q-39 -44 -64 -44l-3 5q0 12 64 55q30 20 66 57q30 32 60 65q-30 2 -38 4q-25 5 -33 15q-36 -49 -83 -92l-5 -2l-4 2q-1 6 4 12q21 20 42.5 42.5t33.5 44.5
q-12 2 -12 20q0 3 5.5 7t8.5 4q12 0 17 -1q11 -7 11 -21q0 -6 -6 -8q1 -15 68 -15q25 18 50 35q35 24 51 24q13 0 13 -15q0 -20 -45 -39q-35 -15 -63 -19q-63 -64 -123 -119q34 11 67 11q31 0 38 -18q0 -10 -5.5 -22.5t-5.5 -15.5q0 -6 9 -6q32 0 67 27q20 16 53 53
q27 31 35 34z" />
    <glyph glyph-name="braceleft" unicode="{" horiz-adv-x="370" 
d="M486 602q-4 -7 -28 -8q27 1 -34 1q-53 0 -104 -96l-68 -142q-28 -45 -120 -45q49 -10 49 -61q0 -46 -69 -133.5t-69 -131.5q0 -30 26 -37q8 -2 51 -2q10 0 20 -8q1 -10 -21 -10q-36 0 -65 9q-41 11 -41 37q0 46 10 70q9 20 76 110q55 73 55 110q0 30 -50 45q86 17 122 67
q15 22 42.5 82t44.5 86q29 44 64 56q25 9 87 9q22 0 22 -8z" />
    <glyph glyph-name="bar" unicode="|" horiz-adv-x="270" 
d="M29 -33h-16v610h16v-610z" />
    <glyph glyph-name="braceright" unicode="}" horiz-adv-x="424" 
d="M425 563q0 -23 -50.5 -97t-50.5 -92q0 -47 55 -67q-47 -20 -56 -24q-31 -14 -53 -29q-42 -30 -73 -104q-24 -63 -47 -125q-28 -65 -64 -78q-40 -15 -98 -15q-36 0 -36 8q0 6 17 6q60 0 89 11q36 13 57 70q24 66 49 132q23 52 59 82q40 32 127 66q-17 1 -34 20.5t-17 37.5
q0 41 47 107.5t47 87.5q0 24 -26 30q-11 3 -45 3q-27 0 -27 8q0 9 47 9q83 0 83 -47z" />
    <glyph glyph-name="asciitilde" unicode="~" horiz-adv-x="336" 
d="M305 188q0 -18 -23.5 -30.5t-43.5 -12.5q-18 0 -38.5 13.5t-21.5 13.5q-16 0 -43 -11t-31 -11q3 18 40 29q28 9 53 9q9 0 26 -14t24 -14q21 0 38.5 14t19.5 14z" />
    <glyph glyph-name="nonbreakingspace" unicode="&#xa0;" horiz-adv-x="483" 
 />
    <glyph glyph-name="section" unicode="&#xa7;" horiz-adv-x="350" 
d="M396 527q0 -43 -35 -43q-31 0 -31 40q0 34 26 48q-10 5 -19 5q-43 0 -57 -34q-10 -22 -10 -71q0 -36 8.5 -108t8.5 -108q0 -51 -12 -97q-16 -59 -47 -81q-41 -28 -68 -28q0 -164 -91 -203q-17 -6 -34 -6q-27 0 -45.5 16.5t-18.5 43.5q0 45 34 45q30 0 30 -42
q0 -36 -26 -49q12 -5 21 -5q78 0 78 131q0 29 -5 88t-5 88q0 37 4 65q7 46 41.5 88.5t78.5 59.5q-1 9 -1 28q0 66 11 103q17 57 63 77q18 8 36 8q27 0 46 -16t19 -43zM236 172q0 80 -14 189q-76 -35 -76 -132q0 -31 6 -85q6 -61 7 -84q20 0 45 15q32 20 32 97z" />
    <glyph glyph-name="copyright" unicode="&#xa9;" horiz-adv-x="377" 
d="M350 341q0 -67 -47.5 -108t-115.5 -41q-67 0 -110 40.5t-43 108.5q0 65 44 105.5t109 40.5q70 0 116.5 -39t46.5 -107zM329 341q0 59 -42 94q-39 32 -100 32q-57 0 -94.5 -35t-37.5 -91q0 -58 36.5 -94t94.5 -36q59 0 101 36t42 94zM257 308l-1 -32q-20 -19 -67 -19
q-36 0 -61 24t-25 60q0 37 24 59.5t62 22.5q45 0 68 -22v-26q-17 27 -68 27q-29 0 -47 -17.5t-18 -45.5t18.5 -46t46.5 -18q43 0 68 33z" />
    <glyph glyph-name="guillemotleft" unicode="&#xab;" horiz-adv-x="317" 
d="M297 291q0 -8 -54.5 -46t-54.5 -67q0 -31 41.5 -77.5t41.5 -53.5q0 -4 -6 -4q-10 0 -68 57t-58 68q0 9 60 60q57 49 74 58q9 5 24 5zM188 286q0 -2 -54.5 -42t-54.5 -63q0 -31 42.5 -79.5t42.5 -54.5q0 -4 -6 -4q-10 0 -68.5 57t-58.5 68q0 10 69 67t83 57q5 0 5 -6z" />
    <glyph glyph-name="sfthyphen" unicode="&#xad;" horiz-adv-x="197" 
d="M173 136q-5 -4 -18.5 -9.5t-20.5 -5.5h-15q-11 0 -32.5 4t-32.5 4q-4 0 -12.5 -1.5t-12.5 -1.5h-3q15 14 52 14q12 0 34 -4t34 -4q14 0 21 4h6z" />
    <glyph glyph-name="sfthyphen" unicode="&#x2212;" horiz-adv-x="197" 
d="M173 136q-5 -4 -18.5 -9.5t-20.5 -5.5h-15q-11 0 -32.5 4t-32.5 4q-4 0 -12.5 -1.5t-12.5 -1.5h-3q15 14 52 14q12 0 34 -4t34 -4q14 0 21 4h6z" />
    <glyph glyph-name="registered" unicode="&#xae;" horiz-adv-x="440" 
d="M425 341q0 -67 -48 -108t-115 -41q-68 0 -111 40.5t-43 108.5q0 65 44 105.5t110 40.5q69 0 114 -38q49 -40 49 -108zM404 339q0 61 -41 96q-39 32 -101 32q-58 0 -95.5 -34.5t-37.5 -91.5q0 -59 36.5 -94t95.5 -35q57 0 100 35.5t43 91.5zM332 251h-26l-70 76h-12v-76
h-20v177h71q54 0 54 -50q0 -51 -66 -51zM308 377q0 29 -34 29h-49v-59h50q11 0 22 10t11 20z" />
    <glyph glyph-name="degree" unicode="&#xb0;" horiz-adv-x="175" 
d="M159 308q0 -19 -13 -31t-32 -12q-46 0 -46 42q0 19 13.5 30.5t32.5 11.5q45 0 45 -41zM147 307q0 30 -33 30q-32 0 -32 -30q0 -29 32 -29q33 0 33 29z" />
    <glyph glyph-name="paragraph" unicode="&#xb6;" horiz-adv-x="479" 
d="M824 593q1 -37 -38 -46q-14 -3 -67 -3l-396 -640q-10 -18 -21 -36q-15 -22 -32 -22q-8 0 -8 5q0 14 16 41l408 660h-52l-397 -646q-37 -60 -57 -60q-9 0 -9 6q0 9 15 34l198 319q-52 8 -89 33q-46 31 -46 79t41 113q47 76 116 120q75 47 160 47h237q14 0 21 -4zM597 553
h-24q-146 0 -226 -129q-34 -54 -34 -93q0 -33 28.5 -58.5t62.5 -30.5z" />
    <glyph glyph-name="guillemotright" unicode="&#xbb;" horiz-adv-x="327" 
d="M315 184q0 -9 -124 -133q-6 -6 -14 -6l-3 5q0 10 45.5 49.5t45.5 62.5q0 22 -40 70t-40 51q0 7 7 9l6 -6q6 -9 64 -53q53 -40 53 -49zM186 183q0 -18 -124 -132q-7 -6 -15 -6l-3 5q1 10 47 49t46 62q0 26 -40.5 73t-40.5 50q0 8 7 8q2 0 7.5 -7t63.5 -52q52 -40 52 -50z
" />
    <glyph glyph-name="circumflex" unicode="&#x2c6;" horiz-adv-x="0" 
d="M1041 701q0 -8 -13 -14.5t-57.5 -38.5t-51.5 -33l-2 5q7 10 97 86q9 6 19 6q8 0 8 -11z" />
    <glyph glyph-name="tilde" unicode="&#x2dc;" horiz-adv-x="0" 
d="M343 347q0 -8 -13 -14t-60 -39q-42 -31 -50 -32l-2 4q7 11 98 86q8 7 18 7q9 0 9 -12z" />
    <glyph glyph-name="afii10023" unicode="&#x401;" horiz-adv-x="403" 
d="M619 677q0 -34 -37 -34q-20 0 -20 12q0 34 36 34q21 0 21 -12zM506 677q0 -34 -35 -34q-16 0 -21 11q0 35 36 35q14 0 20 -12zM571 549q0 -16 -9 -35q-29 -54 -99 -88q-57 -28 -130 -37l-2 -19l16 1q31 1 46.5 -12.5t15.5 -23.5q0 -19 -46 -19q-18 0 -34 12.5t-22 30.5
q-94 -16 -169 -86q-81 -75 -81 -166q0 -105 107 -105q72 0 133.5 50t61.5 121q0 81 -73 81q-122 0 -166 -155q0 46 32.5 94t74.5 62q32 10 62 10q37 0 61.5 -25t24.5 -62q0 -35 -8 -55q-22 -57 -81.5 -95.5t-120.5 -38.5q-60 0 -102 37q-45 38 -45 97q0 96 99 168
q84 63 188 77v19q-12 -1 -24 -1q-161 0 -215 78q-17 24 -17 46q0 31 29 65q48 57 180 57q17 0 27 -1q-148 0 -200 -64q-23 -29 -23 -55q0 -58 87 -90q67 -25 136 -24h21q5 79 67 140.5t141 61.5q57 0 57 -51zM558 547q0 40 -41 40q-57 0 -115 -67q-51 -59 -66 -121
q64 6 136 46q86 48 86 102zM398 336q0 13 -23 20q-18 6 -33 6h-11q4 -41 32 -41q35 0 35 15z" />
    <glyph glyph-name="afii10053" unicode="&#x404;" horiz-adv-x="446" 
d="M61 264q87 35 119 35q10 0 27 -15t50 -15q9 0 26 2.5t26 2.5q6 0 10 -1q-18 -7 -59 -17.5t-59 -10.5q-19 0 -27.5 14.5t-38.5 14.5q-39 0 -74 -12v2zM-17 111q0 102 72 217q71 112 176 187q112 79 214 79q106 0 106 -86q0 -63 -50 -115.5t-112 -52.5q-20 0 -36.5 14.5
t-16.5 34.5q0 34 33 62q28 25 64 34l-3 -6q-38 -28 -51 -42q-25 -27 -25 -60q0 -12 13 -20.5t26 -8.5q53 0 100 52.5t47 106.5q0 73 -97 73q-99 0 -202 -82q-95 -76 -159.5 -191.5t-64.5 -211.5q0 -94 80 -94q63 0 116.5 28.5t83.5 82.5q13 23 13 40q0 30 -31 30t-57 -27
q-17 -18 -37 -52q-16 -28 -20 -29v8q0 14 19 43q17 25 31 37q36 32 70 32q51 0 51 -39q0 -17 -14 -43q-31 -59 -96 -92q-60 -30 -131 -30q-112 0 -112 121z" />
    <glyph glyph-name="afii10054" unicode="&#x405;" horiz-adv-x="565" 
d="M879 570q0 -62 -128 -156q-119 -87 -224 -115q-66 -123 -89 -157q-51 -77 -110 -114q-71 -44 -172 -44q-61 0 -96 24t-35 49q0 63 45 63q12 0 19 -10.5t7 -22.5q0 -30 -31 -30q-3 0 -26 12q-1 -69 129 -69q102 0 187 100q31 37 120 187q-28 -4 -54 -4q-76 0 -128 41
q-57 45 -57 118q0 87 126 142q100 43 201 43q19 0 32 -2q-7 -5 -34 -7q-112 -10 -190 -43q-115 -48 -115 -134q0 -10 3 -23q27 -118 171 -118q27 0 55 5q84 140 138 200q99 109 204 109q21 0 36.5 -11.5t15.5 -32.5zM865 579q0 10 -15 16q-11 4 -22 4q-94 0 -178 -100
q-43 -53 -114 -183q88 24 199 101q130 91 130 162z" />
    <glyph glyph-name="afii10055" unicode="&#x406;" horiz-adv-x="601" 
d="M869 677q0 -34 -37 -34q-20 0 -20 12q0 34 36 34q21 0 21 -12zM891 598q-7 2 -8 2q-9 0 -56 -19q-86 -34 -150 -115q-58 -73 -90 -170q106 0 159 67q14 18 25 61q4 14 9 14q4 0 4 -10v-4q-2 -35 -26 -69q-23 -30 -56 -48q-47 -25 -122 -25q-81 -170 -203 -238
q-101 -57 -196 -57q-52 0 -98 23q-55 28 -55 75q0 18 9.5 32t26.5 14q38 0 38 -34q0 -31 -34 -31q-15 0 -26 11q0 -39 51 -62q40 -19 85 -19q69 0 138 44q66 42 128 110q68 76 89 142q-42 17 -70 48q-33 35 -33 76q0 37 24 78q61 109 370 109q3 0 33 -1.5t31 -1.5zM838 594
q-13 1 -37 1q-99 0 -176 -21q-109 -29 -142 -92q-25 -46 -25 -80q0 -29 25.5 -58.5t54.5 -37.5q44 112 116 179q65 59 184 109z" />
    <glyph glyph-name="afii10056" unicode="&#x407;" horiz-adv-x="601" 
d="M869 677q0 -34 -37 -34q-20 0 -20 12q0 34 36 34q21 0 21 -12zM756 677q0 -34 -35 -34q-16 0 -21 11q0 35 36 35q14 0 20 -12zM891 598q-7 2 -8 2q-9 0 -56 -19q-86 -34 -150 -115q-58 -73 -90 -170q106 0 159 67q14 18 25 61q4 14 9 14q4 0 4 -10v-4q-2 -35 -26 -69
q-23 -30 -56 -48q-47 -25 -122 -25q-81 -170 -203 -238q-101 -57 -196 -57q-52 0 -98 23q-55 28 -55 75q0 18 9.5 32t26.5 14q38 0 38 -34q0 -31 -34 -31q-15 0 -26 11q0 -39 51 -62q40 -19 85 -19q69 0 138 44q66 42 128 110q68 76 89 142q-42 17 -70 48q-33 35 -33 76
q0 37 24 78q61 109 369 109q4 0 34 -1.5t31 -1.5zM838 594q-13 1 -37 1q-99 0 -176 -21q-109 -29 -142 -92q-25 -46 -25 -80q0 -29 25.5 -58.5t54.5 -37.5q44 112 116 179q65 59 184 109z" />
    <glyph glyph-name="afii10057" unicode="&#x408;" horiz-adv-x="465" 
d="M764 598q-45 1 -110 -42q-113 -75 -200 -257h30q83 -1 133 64q8 11 16 36.5t15 35.5q2 3 4 3q5 0 5 -10l-1 -5q-1 -32 -27 -67q-24 -30 -56 -49q-38 -23 -122 -23q-34 -70 -86 -153q-61 -98 -101 -139q135 33 209 127l5 3l4 -4q0 -4 -3 -8q-78 -103 -226 -131
q-61 -98 -147 -169q-105 -87 -199 -87q-99 0 -99 64q0 56 85 101q61 32 175 62q73 18 145 36q75 107 195 306q-48 9 -80 35q-39 30 -39 75q0 37 30 84q42 65 163 94q86 20 196 20q56 0 86 -2zM713 594h-27q-101 1 -185 -22q-112 -29 -154 -93q-33 -52 -33 -90q0 -37 32 -60
q28 -21 67 -24q134 233 300 289zM205 -31q-153 -34 -224 -58q-161 -57 -161 -126q0 -51 88 -51q83 0 171 83q52 49 126 152z" />
    <glyph glyph-name="afii10062" unicode="&#x40e;" horiz-adv-x="488" 
d="M623 690q0 -31 -35.5 -62t-67.5 -31q-31 0 -59 17q-32 19 -33 48l20 -22q17 -18 58 -18q38 0 71 26.5t33 64.5q0 42 -43 42q-22 0 -39.5 -18t-19.5 -40q-1 -10 -4 -10q-5 0 -5 9q0 25 23 46.5t48 21.5q53 0 53 -74zM670 577l-328 -458q75 -28 84 -28q33 0 60 27
q14 14 28 29q0 -24 -26 -45.5t-51 -21.5q-45 0 -104 28q-19 -28 -23 -32q-14 -17 -28 -28q-90 -63 -189 -63q-46 0 -84 22q-46 26 -46 68q0 49 64 78q51 23 106 23q37 0 90 -15q87 -24 88 -24q20 25 105 136q-64 -65 -132 -65q-82 0 -82 51q0 39 40 94q37 49 75 97
q40 58 40 104q0 53 -80 53q-63 0 -110 -29q-88 -54 -88 -121q0 -58 71 -58q60 0 102 48q36 43 46 107q1 5 4 15q3 -6 3 -16q0 -63 -46.5 -114.5t-108.5 -51.5q-34 0 -56 13q-27 16 -27 47q0 77 69 129q64 47 144 47q108 0 108 -92q0 -54 -39 -111q-36 -44 -72 -89
q-39 -48 -39 -81q0 -29 46 -29q54 0 110 50q34 30 81 95l153 211h42zM302 122q-85 42 -163 42q-52 0 -101 -20q-63 -25 -63 -69q0 -31 43 -56q38 -22 72 -22q128 0 212 125z" />
    <glyph glyph-name="afii10017" unicode="&#x410;" horiz-adv-x="689" 
d="M1016 610q-286 -261 -467 -568q86 17 139 78l6 1l5 -2l-1 -7q-58 -66 -155 -81l-18 -31h-60l17 29q-89 5 -154 55q-135 -96 -217 -96q-35 0 -62 18q-32 20 -32 54q0 14 11 31.5t24 17.5q34 0 34 -25q0 -4 -6 -9.5t-11 -5.5q-18 0 -26 6q-6 1 -9 -7v-11q-1 -57 81 -57
q77 0 205 90q-40 33 -67 85t-27 101q0 91 107 91q48 0 101 -42q50 -39 69 -85q216 193 239 211q140 112 274 159zM981 587q-126 -57 -252 -159q-9 -8 -222 -198q14 -41 14 -99q0 -25 -4 -48q185 282 464 504zM494 232q-19 52 -68.5 88.5t-104.5 36.5q-36 0 -60 -23.5
t-24 -60.5q0 -46 29 -97q26 -47 64 -78q69 50 164 134zM512 131q0 51 -14 92q-93 -82 -160 -131q65 -50 150 -54q24 38 24 93z" />
    <glyph glyph-name="afii10018" unicode="&#x411;" horiz-adv-x="838" 
d="M1117 637q-45 -81 -177 -81q-85 0 -235 31q-71 14 -122 14q-76 0 -143 -29q-75 -33 -111 -91q-26 -43 -26 -80q0 -46 28 -72t74 -26q75 0 146.5 59.5t71.5 132.5q0 18 -23 27q-17 7 -37 7q-104 0 -175 -75q-10 -11 -26 -35q8 54 79 90q61 31 122 31q74 0 74 -58
q0 -72 -81 -134q-77 -58 -151 -58q-51 0 -84.5 30t-33.5 81q0 57 45 108q37 42 97 70q77 37 194 37q61 0 182.5 -12.5t182.5 -12.5q81 0 129 46zM853 226q0 -54 -23 -106t-63 -87q-56 -49 -113 -49q-37 0 -54 8q-26 12 -26 46q0 48 55.5 115t102.5 67q-18 -1 -59 -38
q-87 -76 -87 -152q0 -34 51 -34q80 0 137 93q50 82 50 166q0 40 -17 64q-20 28 -58 28q-13 0 -36 -7t-34 -8q1 9 35 20q29 9 43 9q49 0 75 -45q21 -37 21 -90zM864 540q-78 -6 -233 -264q-76 -126 -196 -206q-131 -86 -269 -86q-52 0 -93 15q-58 21 -58 64q0 58 53 58
q29 0 29 -27q0 -13 -11.5 -23t-24.5 -10q-9 0 -27 9q-1 -74 133 -74q92 0 205 70q110 68 225 236q164 239 260 238h7z" />
    <glyph glyph-name="afii10019" unicode="&#x412;" horiz-adv-x="773" 
d="M902 587q-46 0 -99 -40q55 -41 55 -105q0 -105 -119 -140q18 -31 18 -75q0 -53 -23.5 -106.5t-63.5 -87.5q-57 -49 -113 -49q-38 0 -55 8q-25 12 -25 46q0 48 55 115t102 67q-18 -1 -59 -38q-87 -76 -87 -152q0 -34 52 -34q80 0 139 95q52 83 52 169q0 19 -6 38
q-21 -5 -39 -5q-15 0 -34 6q-25 6 -25 18q0 29 58 29q22 0 47 -34q87 27 87 129q0 53 -36 91q-65 -55 -138 -162q-112 -164 -121 -176q-74 -94 -157 -141q-114 -64 -214 -64q-51 0 -79 20q-32 22 -32 43q0 62 40 62q23 0 23 -24q0 -26 -30 -26q-11 0 -25 10q0 -76 106 -76
q63 0 131 40q81 47 155 130q36 40 122 155q75 101 129 155q41 41 77 66q-56 46 -143 46q-146 0 -244 -48q-64 -31 -105 -75q-51 -54 -51 -115q0 -43 25 -67.5t68 -24.5q86 0 155.5 59.5t69.5 116.5q0 60 -76 60q-93 0 -156 -99q-11 -16 -23 -45q1 42 50 98.5t129 56.5
q98 0 98 -75q0 -85 -105 -147q-62 -38 -142 -38q-47 0 -76 26.5t-29 73.5q0 121 160 201q101 51 252 51q94 0 162 -43q54 32 89 32q1 0 24 -1zM720 309q-13 27 -37 27h-9q-36 0 -36 -18q0 -4 13 -9t18 -5q28 0 51 5z" />
    <glyph glyph-name="afii10020" unicode="&#x413;" horiz-adv-x="630" 
d="M1117 637q-45 -81 -177 -81q-85 0 -235 31q-71 14 -122 14q-76 0 -143 -29q-75 -33 -111 -91q-26 -43 -26 -80q0 -46 28 -72t74 -26q75 0 146.5 59.5t71.5 132.5q0 18 -23 27q-17 7 -37 7q-104 0 -175 -75q-10 -11 -26 -35q8 54 79 90q61 31 122 31q74 0 74 -58
q0 -72 -81 -134q-77 -58 -151 -58q-51 0 -84.5 30t-33.5 81q0 57 45 108q37 42 97 70q77 37 194 37q61 0 182.5 -12.5t182.5 -12.5q81 0 129 46zM864 540q-78 -6 -233 -264q-76 -126 -196 -206q-131 -86 -269 -86q-52 0 -93 15q-58 21 -58 64q0 58 53 58q29 0 29 -27
q0 -13 -11.5 -23t-24.5 -10q-9 0 -27 9q-1 -74 133 -74q92 0 205 70q110 68 225 236q164 239 260 238h7z" />
    <glyph glyph-name="afii10021" unicode="&#x414;" horiz-adv-x="731" 
d="M876 597q-61 -8 -144 -83q34 -55 34 -134t-33 -162q-38 -92 -132.5 -158t-192.5 -66q-65 0 -130 22q-80 -29 -162 -29q-28 0 -58 12q-39 15 -39 39q0 39 67 39q37 0 92 -16q3 -1 89 -31q104 40 180 139q7 10 117 186q70 113 146 165q-68 88 -223 88q-96 0 -161 -49
q-43 -33 -70 -80q-29 -51 -29 -102q0 -55 34 -84t89 -29q68 0 124 54.5t56 121.5q0 66 -76 66q-87 0 -149 -103q-10 -16 -25 -49q0 61 56.5 114.5t117.5 53.5q92 0 92 -80q0 -75 -59.5 -134t-135.5 -59q-67 0 -109 33q-46 37 -46 102q0 106 106 182q78 55 187 55
q163 0 233 -92q102 63 154 68zM754 390q0 62 -33 113q-80 -77 -154 -229q-88 -178 -274 -252q51 -16 114 -16q52 0 105 19q113 42 179 143q63 98 63 222zM253 25q-115 40 -151 40q-63 0 -63 -29q0 -17 35 -27q26 -7 49 -7q63 0 130 23z" />
    <glyph glyph-name="afii10022" unicode="&#x415;" 
d="M571 549q0 -16 -9 -35q-29 -54 -99 -88q-57 -28 -130 -37l-2 -19l16 1q31 1 46.5 -12.5t15.5 -23.5q0 -19 -46 -19q-18 0 -34 12.5t-22 30.5q-94 -16 -169 -86q-81 -75 -81 -166q0 -105 107 -105q72 0 133.5 50t61.5 121q0 81 -73 81q-122 0 -166 -155q0 46 32.5 94
t74.5 62q32 10 62 10q37 0 61.5 -25t24.5 -62q0 -35 -8 -55q-22 -57 -81.5 -95.5t-120.5 -38.5q-60 0 -102 37q-45 38 -45 97q0 96 99 168q84 63 188 77v19q-12 -1 -24 -1q-161 0 -215 78q-17 24 -17 46q0 31 29 65q48 57 180 57q17 0 27 -1q-148 0 -200 -64
q-23 -29 -23 -55q0 -58 87 -90q67 -25 136 -24h21q5 79 67 140.5t141 61.5q57 0 57 -51zM558 547q0 40 -41 40q-57 0 -115 -67q-51 -59 -66 -121q64 6 136 46q86 48 86 102zM398 336q0 13 -23 20q-18 6 -33 6h-11q4 -41 32 -41q35 0 35 15z" />
    <glyph glyph-name="afii10024" unicode="&#x416;" horiz-adv-x="912" 
d="M1119 566q0 -31 -23 -68t-51 -56l-8 -2q1 7 37 53q34 43 34 74q0 18 -13 32.5t-31 14.5q-31 0 -80 -28q-112 -63 -212 -180q-112 -132 -125 -243q-3 -24 -3 -47q0 -114 87 -114q64 0 124.5 59.5t60.5 122.5q0 62 -52 62q-53 0 -97 -45q-37 -38 -58 -95q0 55 50.5 104
t104.5 49q66 0 66 -72q0 -67 -64 -133t-131 -66q-60 0 -94 42q-33 39 -33 99q0 71 33 149q-60 -62 -120 -123q-100 -100 -113 -103q-4 4 -4 8q0 5 5 18q75 196 200 333l-290 -301q-117 -121 -222 -121q-54 0 -90 36t-36 91q0 71 48 136q52 71 120 71q32 0 49 -27
q15 -23 15 -58q0 -63 -61 -120q-13 -13 -21 -19q-14 -10 -24 -12q34 24 62 67q31 47 31 85q0 74 -54 74q-58 0 -107 -71q-44 -65 -44 -125q0 -38 17 -66q21 -34 57 -34q108 0 210 99q78 76 138 195q75 146 75 237q0 58 -49 58q-25 0 -50 -26q-12 -13 -36 -50
q-19 -29 -28 -31l-1 2q1 7 10 24q50 91 111 91q60 0 60 -87q0 -124 -88 -284q84 79 168 157q142 131 160 137q-1 -12 -18 -33q-198 -252 -274 -402l317 346q51 56 138 113q101 66 160 66q25 0 41 -19t16 -44z" />
    <glyph glyph-name="afii10025" unicode="&#x417;" horiz-adv-x="461" 
d="M569 515q0 -67 -53.5 -127t-120.5 -64q30 -7 54 -33t24 -56q0 -40 -36 -98q-94 -151 -290 -151q-111 0 -111 98q0 56 41 110q44 58 99 58q30 0 50 -12q25 -14 25 -42q0 -34 -30 -61q-26 -23 -62 -32l-3 2l40 30q36 31 36 78q0 12 -14 20t-27 8q-49 0 -83 -30
q-25 -22 -44 -58.5t-19 -68.5q0 -42 32 -65q28 -20 72 -20q155 0 238 127q45 68 45 113q0 61 -61 75q-21 -9 -39 -9q-19 0 -19 13q0 16 24 16q15 0 33 -6l51 12q48 11 81 70q29 53 29 106q0 29 -25.5 49t-54.5 20q-38 0 -61 -7q-50 -15 -87 -46q-44 -38 -44 -83
q0 -15 7.5 -29t21.5 -14q21 0 37 17.5t16 39.5q0 17 -9 35l2 10q8 0 13 -18q4 -13 4 -24q0 -27 -21 -47.5t-48 -20.5q-32 0 -32 47q0 68 71 115q63 41 135 41q113 0 113 -88z" />
    <glyph glyph-name="afii10026" unicode="&#x418;" 
d="M631 577l-331 -466q-40 -57 -40 -89q0 -13 23 -13q26 0 79 56t61 56q-1 -12 -36 -50q-72 -77 -117 -77q-34 0 -34 25q0 63 41 116q-22 -27 -57 -62q-76 -82 -132 -82q-70 0 -70 63q0 67 78 169q72 86 144 173q78 98 78 156q0 55 -79 55q-64 0 -111 -29q-87 -54 -87 -121
q0 -58 70 -58q60 0 102 48q37 44 47 107q0 5 4 15q2 -6 2 -16q0 -63 -46.5 -114.5t-108.5 -51.5q-33 0 -56 13q-27 16 -27 47q0 77 70 129q63 47 143 47q109 0 109 -92q0 -53 -38 -110q-19 -29 -144 -180q-105 -126 -123 -171q-6 -16 -6 -30q0 -35 49 -35t136 89
q57 58 112 134l254 349h41z" />
    <glyph glyph-name="afii10027" unicode="&#x419;" 
d="M573 690q0 -31 -35.5 -62t-67.5 -31q-31 0 -59 17q-32 19 -33 48l20 -22q17 -18 58 -18q38 0 71 26.5t33 64.5q0 42 -43 42q-22 0 -39.5 -18t-19.5 -40q-1 -10 -4 -10q-5 0 -5 9q0 25 23 46.5t48 21.5q53 0 53 -74zM631 577l-331 -466q-40 -57 -40 -89q0 -13 23 -13
q26 0 79 56t61 56q-1 -12 -36 -50q-72 -77 -117 -77q-34 0 -34 25q0 63 41 116q-22 -27 -57 -62q-76 -82 -132 -82q-70 0 -70 63q0 67 78 169q72 86 144 173q78 98 78 156q0 55 -79 55q-64 0 -111 -29q-87 -54 -87 -121q0 -58 70 -58q60 0 102 48q37 44 47 107q0 5 4 15
q2 -6 2 -16q0 -63 -46.5 -114.5t-108.5 -51.5q-33 0 -56 13q-27 16 -27 47q0 77 70 129q63 47 143 47q109 0 109 -92q0 -53 -38 -110q-19 -29 -144 -180q-105 -126 -123 -171q-6 -16 -6 -30q0 -35 49 -35t136 89q57 58 112 134l254 349h41z" />
    <glyph glyph-name="afii10028" unicode="&#x41a;" horiz-adv-x="794" 
d="M1180 558q0 -28 -27 -28q-18 0 -25 15q0 35 24 40q-16 8 -37 8q-81 0 -187 -145q-28 -38 -80 -74.5t-96 -47.5q10 -23 10 -42q0 -46 -34 -99q-32 -43 -63 -85q-34 -47 -34 -78q0 -18 17 -18q37 0 97 59q64 62 80 65q0 -6 -17 -22q-37 -35 -73 -70q-51 -45 -85 -45
q-50 0 -50 47t36 103q33 44 67 88q35 49 35 82v12q-8 -2 -15 -2q-17 0 -35 9q-21 10 -21 25q0 23 24 23q34 0 57 -44q54 18 116 89q92 104 108 117q69 59 149 59q38 0 51 -19q8 -13 8 -22zM855 603q0 -12 -8 -19q-64 -50 -93 -82q-47 -52 -158 -226q-80 -124 -186 -200
q-123 -87 -254 -87q-51 0 -88 17q-50 23 -50 67q0 41 42 41q9 0 16.5 -9t7.5 -18q0 -23 -29 -23q-13 0 -26 10q0 -75 139 -75q94 0 182 67q65 49 144 151q60 80 121 159q37 46 74 84q24 27 76 74q-34 -20 -65 -20q-40 0 -54 18q-6 7 -8 31q-1 20 -16 29q-23 12 -85 12
q-58 0 -95 -19q-49 -25 -49 -77q0 -78 90 -78q37 0 65 21q17 13 34 38q14 21 18 22q-5 -39 -43 -66t-78 -27q-42 0 -70 24q-31 25 -31 66q0 56 53 86q43 25 103 25q66 0 102 -16q28 -12 29 -49q2 -31 39 -31q42 0 94 42q26 22 51 43q6 -2 6 -5zM736 331q-10 38 -49 38
q-9 0 -9 -7q0 -15 14.5 -23.5t30.5 -8.5q6 0 13 1z" />
    <glyph glyph-name="afii10029" unicode="&#x41b;" horiz-adv-x="701" 
d="M806 611q-6 -23 -37 -79q-46 -80 -130 -244q-35 -63 -97 -193q-13 -35 -13 -60t34 -25q33 0 92.5 58t60.5 58l3 -3q-3 -7 -28 -35q-40 -45 -61 -61q-39 -31 -79 -31q-45 0 -45 50q0 78 85 228q37 66 137 214q15 21 40 63q3 5 8 16l-2 2q-114 -126 -249 -291
q-55 -68 -111 -136q-68 -77 -128 -116t-126 -39q-50 0 -87 18q-47 22 -47 67q0 42 43 42q9 0 16 -9.5t7 -18.5q0 -27 -32 -27q-11 0 -22 16q0 -77 139 -77q60 0 131 55q53 41 119 119q47 58 94 117q85 102 261 302q7 8 23 22z" />
    <glyph glyph-name="afii10030" unicode="&#x41c;" horiz-adv-x="859" 
d="M965 605q-6 -23 -36 -79q-46 -80 -131 -244q-35 -63 -96 -193q-14 -35 -14 -60t34 -25q33 0 92.5 58t60.5 59l3 -4q-2 -7 -28 -35q-40 -45 -61 -61q-39 -31 -79 -31q-45 0 -45 51q0 78 85 227q37 65 137 215q15 20 41 62q2 6 7 16l-2 2q-9 -6 -76 -86
q-116 -140 -255 -333q-29 -42 -92 -122q-31 -35 -44 -35q-8 0 -8 16q0 85 125 285q93 137 186 275q-68 -75 -192 -226q-127 -155 -192 -226q-112 -124 -225 -124q-50 0 -87 18q-47 22 -47 67q0 42 43 42q9 0 16 -9.5t7 -18.5q0 -27 -32 -27q-11 0 -22 16q0 -77 139 -77
q59 0 131 55q53 41 120 119q47 58 94 117q69 82 172 203q27 35 87 98q13 10 23 10q-8 -21 -38 -71q-81 -136 -163 -271q-133 -226 -133 -246q0 -6 5 -6q7 0 44 46q62 83 185 249q52 70 237 284q7 9 23 22z" />
    <glyph glyph-name="afii10031" unicode="&#x41d;" horiz-adv-x="631" 
d="M881 541q0 -28 -22 -57.5t-48 -43.5q-92 -50 -226 -90q-50 -72 -100 -145q-69 -108 -69 -148q0 -53 63 -53q38 0 79 31q22 17 61 59q29 31 38 31q0 -14 -48 -60q-42 -40 -64 -54q-32 -22 -62 -22q-93 0 -93 91q0 41 21 85q60 123 113 177q-33 -7 -66 -13q-39 -8 -65 -19
q-111 -156 -154 -202q-111 -119 -209 -119q-45 0 -77 16q-40 20 -40 61q0 48 45 48q7 0 13.5 -7t6.5 -14q0 -30 -25 -30q-13 0 -26 10q0 -47 36 -62q21 -9 77 -9q65 0 143 88q35 40 105 146q13 19 37 57q-116 -21 -155 -85q-5 -8 -10 -7q0 9 4 17q28 60 169 88q20 27 61 79
q35 43 140 143q-58 -27 -91 -27q-30 0 -41 23q-6 15 -7 50q-13 23 -67 23q-136 0 -136 -90q0 -71 95 -71q45 0 74 22q14 11 27 22q-1 -3 -4 -7q-34 -45 -96 -45q-110 0 -110 76q0 54 54 82q44 23 103 23q63 0 78 -23q2 -4 7 -44q3 -24 37 -24q39 0 79 24q24 13 58 43
q28 23 34 23q-1 -8 -45 -48q-71 -64 -111 -121q-17 -24 -37 -54q-11 -22 -38 -63q16 6 135 32q85 103 135 152q100 95 166 95q48 0 48 -60zM871 548q0 44 -41 44q-97 0 -239 -228q110 23 218 88q62 37 62 96z" />
    <glyph glyph-name="afii10032" unicode="&#x41e;" horiz-adv-x="435" 
d="M645 522q0 -86 -73 -101q4 2 11 6q48 29 48 80q0 74 -95 74q-101 0 -216 -82q-108 -77 -182 -191q-77 -118 -77 -216q0 -91 65 -91q79 0 178 81q91 75 158 182.5t67 185.5q0 64 -49 64q-66 0 -138 -65q-66 -60 -87 -128q-2 -6 -12 -16l-2 2q-1 4 -1 10q0 25 45 85
q92 123 192 123q64 0 64 -74q0 -82 -68 -192.5t-162 -186.5q-101 -83 -185 -83q-92 0 -92 127q0 106 69 209q60 92 157 160q155 109 282 109q33 0 66 -19q37 -22 37 -53z" />
    <glyph glyph-name="afii10033" unicode="&#x41f;" horiz-adv-x="906" 
d="M1165 639q-21 -37 -62.5 -58.5t-86.5 -21.5q-178 0 -311 28q-69 14 -122 14q-76 0 -143 -29q-75 -33 -111 -91q-26 -43 -26 -80q0 -46 28 -72t74 -26q75 0 146.5 59.5t71.5 132.5q0 18 -23 27q-17 7 -37 7q-104 0 -175 -75q-10 -11 -26 -35q8 54 79 90q61 31 122 31
q74 0 74 -58q0 -72 -81 -134q-77 -58 -151 -58q-51 0 -84.5 30t-33.5 81q0 28 16 64q36 78 137 118q81 32 183 32q67 0 201.5 -11t202.5 -11q49 0 74 7q34 10 64 39zM922 126q-2 -15 -49 -60q-42 -41 -63 -54q-34 -22 -67 -22q-89 0 -89 90q0 72 87 195q84 119 153 155
q-62 -93 -123 -187q-91 -142 -91 -185q0 -53 63 -53q39 0 80 31q21 17 60 58q29 32 39 32zM864 540q-78 -6 -233 -264q-76 -126 -196 -206q-131 -86 -269 -86q-52 0 -93 15q-58 21 -58 64q0 58 53 58q29 0 29 -27q0 -13 -11.5 -23t-24.5 -10q-9 0 -27 9q-1 -74 133 -74
q92 0 205 70q110 68 225 236q164 239 260 238h7z" />
    <glyph glyph-name="afii10034" unicode="&#x420;" horiz-adv-x="722" 
d="M911 587q-56 -6 -108 -46q68 -43 68 -108q0 -58 -43.5 -98.5t-101.5 -40.5q-19 0 -31 13t-12 32q0 24 21.5 59t42.5 41q-17 -20 -33 -41q-19 -25 -19 -49q0 -45 38 -45q42 0 76 44q33 41 33 84q0 57 -54 96q-64 -55 -136 -162q-106 -154 -121 -174q-74 -93 -157 -139
q-116 -64 -222 -64q-60 0 -93 22q-39 24 -39 51q0 28 6 38q8 14 35 14q8 0 15.5 -9.5t7.5 -17.5q0 -23 -29 -23q-13 0 -26 10q1 -75 139 -75q114 0 228 108q57 55 189 229q115 151 187 202q-62 37 -135 37q-147 0 -249 -46q-66 -30 -111 -73q-57 -55 -57 -114q0 -43 31 -66
q28 -19 72 -19q77 0 149 57t72 108q0 55 -84 55q-50 0 -99 -31q-44 -28 -75 -72q9 45 69 81q56 32 105 32q99 0 99 -64q0 -68 -86 -126q-78 -53 -150 -53q-49 0 -81 23q-35 26 -35 74q0 62 56 119q44 46 112 78q103 49 262 49q82 0 151 -37q61 38 123 37z" />
    <glyph glyph-name="afii10035" unicode="&#x421;" horiz-adv-x="614" 
d="M853 483q0 -58 -42 -110q-45 -54 -101 -54q-43 0 -78 25q-39 29 -39 70q-36 -64 -98 -88q-48 -18 -132 -18q-32 0 -49 2q-74 -107 -74 -208q0 -39 16 -66q20 -32 58 -32q81 0 142.5 55.5t61.5 135.5q0 21 -21 32q-17 9 -40 9q-46 0 -91 -42q-38 -36 -60 -84q0 46 53 92.5
t99 46.5q73 0 73 -69q0 -65 -63.5 -127t-128.5 -62t-98.5 37t-33.5 102q0 88 65 189q-52 12 -88 36q-50 32 -50 75q0 33 28 66q31 37 96 49q39 7 112 7q-150 0 -201 -64q-23 -28 -23 -56q0 -40 49 -70q35 -21 85 -33l2 2q8 8 67 73q40 44 72 69q59 46 129 82q88 45 143 45
q160 0 160 -117zM822 469q0 118 -126 118q-57 0 -153 -64q-72 -47 -135 -107q-27 -31 -84 -93l-3 -3q29 -2 54 -2q89 0 142 35q47 31 95 112q-4 -15 -4 -25q0 -41 30.5 -76t70.5 -35q53 0 85 45q28 40 28 95z" />
    <glyph glyph-name="afii10036" unicode="&#x422;" horiz-adv-x="995" 
d="M1221 625q-20 -36 -61.5 -58t-85.5 -22q-102 0 -255 23q-59 10 -117 21q-70 12 -118 12q-76 0 -143 -29q-76 -32 -112 -91q-26 -43 -26 -80q0 -46 28 -72t74 -26q75 0 146.5 59.5t71.5 132.5q0 18 -23 27q-17 7 -37 7q-104 0 -175 -75q-10 -11 -26 -35q8 54 79 90
q61 31 122 31q74 0 74 -58q0 -72 -81 -134q-77 -58 -151 -58q-51 0 -84.5 30t-33.5 81q0 57 44 107q38 42 98 70q77 37 198 37q75 0 222.5 -18t221.5 -18q57 0 81 6q37 9 69 40zM1009 127q-2 -15 -49 -60q-42 -41 -63 -54q-34 -22 -67 -22q-89 0 -89 90q0 72 87 195
q84 119 153 155q-62 -93 -124 -187q-90 -142 -90 -185q0 -53 63 -53q39 0 79 31q22 17 61 58q29 32 39 32zM907 476q-108 -127 -161 -207q-69 -105 -164 -277v6q0 22 1 32q3 27 30 87q37 82 94 163q64 91 125 138zM864 540q-78 -6 -233 -264q-76 -126 -196 -206
q-131 -86 -269 -86q-52 0 -93 15q-58 21 -58 64q0 58 53 58q29 0 29 -27q0 -13 -11.5 -23t-24.5 -10q-9 0 -27 9q-1 -74 133 -74q92 0 205 70q110 68 225 236q164 239 260 238h7z" />
    <glyph glyph-name="afii10037" unicode="&#x423;" horiz-adv-x="488" 
d="M670 577l-328 -458q75 -28 84 -28q33 0 60 27q14 14 28 29q0 -24 -26 -45.5t-51 -21.5q-45 0 -104 28q-19 -28 -23 -32q-14 -17 -28 -28q-90 -63 -189 -63q-46 0 -84 22q-46 26 -46 68q0 49 64 78q51 23 106 23q37 0 90 -15q87 -24 88 -24q20 25 105 136
q-64 -65 -132 -65q-82 0 -82 51q0 39 40 94q37 49 75 97q40 58 40 104q0 53 -80 53q-63 0 -110 -29q-88 -54 -88 -121q0 -58 71 -58q60 0 102 48q36 43 46 107q1 5 4 15q3 -6 3 -16q0 -63 -46.5 -114.5t-108.5 -51.5q-34 0 -56 13q-27 16 -27 47q0 77 69 129q64 47 144 47
q108 0 108 -92q0 -54 -39 -111q-36 -44 -72 -89q-39 -48 -39 -81q0 -29 46 -29q54 0 110 50q34 30 81 95l153 211h42zM302 122q-85 42 -163 42q-52 0 -101 -20q-63 -25 -63 -69q0 -31 43 -56q38 -22 72 -22q128 0 212 125z" />
    <glyph glyph-name="afii10038" unicode="&#x424;" horiz-adv-x="899" 
d="M976 365q0 -104 -113 -180q-102 -67 -211 -67q-19 0 -40 7q-26 9 -27 24q5 -1 26 -12t42 -11q82 0 171.5 64t105.5 141q6 27 6 54q0 101 -107 101q-60 0 -111 -32q-46 -63 -119 -178q-79 -125 -187 -201q-123 -86 -257 -86q-50 0 -86 17q-48 22 -48 67q0 16 8.5 29.5
t23.5 13.5q34 0 34 -28q0 -24 -29 -24q-9 0 -25 10q0 -74 139 -74q120 0 240 118q-23 -6 -49 -6q-60 0 -101 35q-44 37 -44 96q0 106 113 182q102 68 213 68q53 0 62 -30q-8 2 -25 12t-40 10q-100 0 -191 -77q-94 -81 -94 -178q0 -105 107 -105q35 0 67 10q55 58 115 145
q112 163 224 254q-34 -20 -65 -20q-40 0 -54 18q-7 7 -8 31q-1 20 -17 29q-22 12 -84 12q-59 0 -92 -18q34 31 93 31q64 0 98 -15q28 -12 29 -49q1 -30 39 -30q42 0 93 42q26 21 52 43q6 -2 6 -5q0 -12 -10 -19q-60 -44 -112 -107q43 22 93 22q61 0 103.5 -37t42.5 -97z" />
    <glyph glyph-name="afii10039" unicode="&#x425;" horiz-adv-x="662" 
d="M880 529q0 -21 -11.5 -36.5t-32.5 -15.5q-24 0 -24 23q0 27 35 27q13 0 21 -11q0 71 -83 71q-31 0 -78 -24q-67 -34 -121 -94q-31 -33 -94 -122q-42 -57 -83 -115q-57 -84 -57 -122q0 -48 31 -76t79 -28q73 0 132 48q63 52 63 123q0 81 -73 81q-122 0 -166 -155
q0 46 32.5 94t74.5 62q32 10 62 10q38 0 62 -25t24 -63q0 -78 -67 -134q-63 -54 -144 -54q-52 0 -94 26q-48 30 -48 79q0 26 12 57q-78 -79 -117 -108q-74 -54 -146 -54q-51 0 -78 20q-32 22 -32 43q0 62 40 62q23 0 23 -24q0 -26 -30 -26q-11 0 -25 10q0 -71 107 -71
q81 0 230 166q110 122 183 242q35 56 35 105q0 77 -113 77q-74 0 -140 -39q-76 -45 -76 -114q0 -60 69 -60q86 0 150 85q26 35 26 50.5t6 15.5q3 0 3 -10q0 -22 -25 -61.5t-69.5 -64.5t-91.5 -25q-80 0 -80 67q0 30 18 62q30 52 90 79q55 25 120 25q62 0 91 -16
q39 -22 39 -80q0 -35 -14 -69q140 154 263 154q92 0 92 -67z" />
    <glyph glyph-name="afii10040" unicode="&#x426;" 
d="M631 577l-331 -465q-39 -56 -39 -90q0 -13 21 -13q26 0 80 56t61 56q-1 -14 -36 -51q-26 -27 -48 -45q-13 -30 -26 -59q-15 -34 -30 -57q-66 -97 -98 -97q-16 0 -21 8v9q0 14 3 22q12 34 121 117l13 33q-16 -7 -32 -7q-33 0 -33 34q0 51 41 107q-22 -27 -57 -62
q-76 -82 -132 -82q-70 0 -70 63q0 67 78 169q72 86 144 173q78 99 78 157q0 55 -79 55q-61 0 -112 -32q-86 -55 -86 -121q0 -56 70 -56q58 0 101 47.5t48 106.5q-1 7 4 17q2 -7 2 -17q0 -63 -46.5 -114.5t-108.5 -51.5q-33 0 -56 13q-27 16 -27 47q0 77 70 129q63 47 143 47
q109 0 109 -92q0 -53 -38 -109.5t-113 -145.5q-85 -102 -116 -143q-44 -60 -44 -90q0 -39 49 -39q48 0 136 90q58 59 112 134l254 349h41zM283 -43q-111 -83 -111 -125q0 -17 17 -17q20 0 55 60q30 51 39 82z" />
    <glyph glyph-name="afii10041" unicode="&#x427;" 
d="M627 577l-331 -466q-40 -57 -40 -89q0 -13 23 -13q26 0 79 55.5t61 56.5q-2 -25 -60 -75q-61 -52 -93 -52q-20 0 -31 21q-10 17 -10 39q0 25 20 55q25 36 164 214q-22 -27 -57 -61q-76 -83 -132 -83q-78 0 -78 51q0 41 44 104q42 54 83 109q45 64 45 109q0 55 -78 55
q-64 0 -111 -29q-88 -54 -88 -121q0 -58 70 -58q61 0 102 48q37 43 47 107q0 5 4 15q3 -6 3 -16q0 -63 -47 -114.5t-109 -51.5q-33 0 -55 13q-28 16 -28 47q0 77 70 129q63 47 143 47q110 0 110 -92q0 -57 -45 -120q-40 -50 -81 -101q-44 -57 -44 -99q0 -18 43 -18
q66 0 199 160q34 41 167 224h41z" />
    <glyph glyph-name="afii10042" unicode="&#x428;" horiz-adv-x="644" 
d="M863 577l-331 -466q-41 -57 -41 -89q0 -13 23 -13q26 0 79 56t61 56q0 -12 -35 -50q-72 -77 -117 -77q-34 0 -34 25q0 63 41 116q-23 -27 -57 -62q-76 -82 -133 -82q-72 0 -72 71q0 25 20 61q-117 -132 -179 -132q-70 0 -70 63q0 67 78 169q72 86 144 173q78 98 78 156
q0 55 -79 55q-64 0 -111 -29q-87 -54 -87 -121q0 -58 70 -58q60 0 102 48q37 43 47 107q0 5 4 15q2 -6 2 -16q0 -63 -46.5 -114.5t-108.5 -51.5q-33 0 -56 13q-27 16 -27 47q0 77 70 129q63 47 143 47q109 0 109 -92q0 -53 -38 -110q-20 -29 -144 -180q-104 -126 -123 -171
q-6 -16 -6 -30q0 -35 49 -35t136 89q57 58 112 134l254 349h41l-331 -465q-30 -42 -30 -70q0 -37 49 -37q50 0 137 89q56 58 112 134l253 349h42z" />
    <glyph glyph-name="afii10043" unicode="&#x429;" horiz-adv-x="644" 
d="M863 577l-331 -465q-40 -56 -40 -90q0 -13 22 -13q26 0 79.5 56t60.5 56q0 -14 -33 -48q-27 -28 -47 -42q-15 -43 -24 -62q-14 -34 -31 -58q-65 -96 -97 -96q-17 0 -21 8v9q0 14 2 22q13 34 121 117l13 33q-18 -10 -36 -10q-34 0 -34 34q0 51 42 107q-23 -27 -57 -62
q-76 -82 -133 -82q-72 0 -72 71q0 24 19 61q-113 -132 -178 -132q-70 0 -70 63q0 67 78 169q72 86 144 173q78 99 78 157q0 55 -79 55q-61 0 -112 -32q-86 -55 -86 -121q0 -56 70 -56q58 0 101 47.5t48 106.5q-1 7 4 17q2 -7 2 -17q0 -63 -46.5 -114.5t-108.5 -51.5
q-33 0 -56 13q-27 16 -27 47q0 77 70 129q63 47 143 47q109 0 109 -92q0 -53 -38 -109.5t-113 -145.5q-86 -102 -116 -143q-44 -60 -44 -90q0 -39 49 -39q48 0 136 90q58 59 112 134l254 349h41l-332 -465q-29 -41 -29 -73q0 -35 49 -35t137 90q57 59 112 134l253 349h42z
M526 -34q-111 -83 -111 -124q0 -18 17 -18q20 0 56 61q29 51 38 81z" />
    <glyph glyph-name="afii10044" unicode="&#x42a;" horiz-adv-x="551" 
d="M557 281q0 -102 -87.5 -197t-188.5 -95q-100 0 -100 99q0 42 19 88q16 40 64 113q19 32 61 95q69 96 105 144q-54 -25 -85 -25q-33 0 -43 22q-6 13 -8 50q-12 22 -66 22q-136 0 -136 -89q0 -71 94 -71q46 0 75 22q13 11 27 22q-1 -3 -4 -7q-34 -45 -97 -45
q-110 0 -110 76q0 54 55 82q43 23 103 23q54 0 72 -16q12 -10 12 -34v-3v-3q0 -18 6 -24q9 -11 36 -11q36 0 85 29q19 25 40 53l48 9q-111 -144 -177 -237q-128 -181 -145 -237q-7 -27 -7 -50q0 -32 11 -55q15 -30 44 -30q45 0 104 33q67 37 110 106.5t43 144.5q0 85 -57 85
q-89 0 -145 -120q-26 -56 -34 -134q-1 -13 -5 -13q-8 0 -8 47q0 84 54 153q58 73 140 73q44 0 69.5 -25.5t25.5 -69.5z" />
    <glyph glyph-name="afii10045" unicode="&#x42b;" horiz-adv-x="666" 
d="M886 577l-331 -466q-41 -57 -41 -89q0 -13 24 -13q25 0 78 55.5t62 56.5q-1 -12 -36 -50q-72 -77 -117 -77q-34 0 -34 25q0 63 41 116q-96 -112 -218 -108q-60 -38 -120 -38q-99 0 -99 99q0 66 52 155q46 71 91 142q-30 -26 -83 -66q-67 -50 -82 -52q1 4 6 7
q83 58 100 72q59 44 90 82q13 17 38 52q21 27 93 121l48 9q-300 -391 -322 -474q-7 -29 -7 -52q0 -32 11 -54q14 -29 43 -29q43 0 101 31q-86 20 -86 117q0 86 49 154q55 73 138 73q45 0 70 -25.5t25 -69.5q0 -68 -42 -138q-40 -64 -99 -106q84 1 153 62q40 35 109 129
l254 349h41zM430 285q0 33 -11 56q-15 30 -44 30q-73 0 -124 -95q-43 -81 -43 -161q0 -59 80 -75q62 38 102 105.5t40 139.5z" />
    <glyph glyph-name="afii10046" unicode="&#x42c;" horiz-adv-x="472" 
d="M470 281q0 -102 -86 -196q-89 -96 -190 -96q-99 0 -99 99q0 66 52 155q46 71 91 142q-30 -27 -83 -66q-67 -50 -82 -52q1 4 6 7q74 52 100 72q59 45 90 82q13 17 38 52q19 25 93 121l48 9q-300 -392 -322 -474q-7 -30 -7 -52q0 -32 11 -54q14 -29 43 -29q45 0 104 33
q67 37 110 106.5t43 144.5q0 85 -56 85q-41 0 -81 -32q-75 -60 -98 -201q-2 -14 -6 -33q-8 13 -8 46q0 84 54 153q58 73 140 73q45 0 70 -25.5t25 -69.5z" />
    <glyph glyph-name="afii10047" unicode="&#x42d;" horiz-adv-x="446" 
d="M473 320q-87 -35 -119 -35q-10 0 -27 15t-50 15q-9 0 -26 -2.5t-26 -2.5q-6 0 -10 1q18 7 59 17.5t58 10.5q20 0 28.5 -14.5t38.5 -14.5q39 0 74 12v-2zM551 473q0 -102 -71.5 -215.5t-176.5 -188.5q-112 -79 -214 -79q-106 0 -106 86q0 63 50 115.5t112 52.5
q20 0 36.5 -14.5t16.5 -34.5q0 -34 -33 -62q-28 -25 -65 -34l3 6q39 28 52 42q25 27 25 60q0 12 -13 20.5t-26 8.5q-53 0 -100 -52.5t-47 -106.5q0 -73 97 -73q98 0 202 82q95 76 159 191.5t64 211.5q0 94 -79 94q-63 0 -117 -28.5t-84 -82.5q-12 -23 -12 -40q0 -30 31 -30
q30 0 57 27q17 18 37 52q16 28 20 29v-8q0 -14 -20 -43q-17 -25 -30 -37q-36 -32 -70 -32q-51 0 -51 39q0 17 13 43q32 59 97 92q60 30 131 30q112 0 112 -121z" />
    <glyph glyph-name="afii10048" unicode="&#x42e;" horiz-adv-x="1074" 
d="M1285 522q0 -86 -73 -101q4 2 11 6q48 29 48 80q0 74 -95 74q-101 0 -216 -82q-108 -77 -182 -191q-77 -118 -77 -216q0 -91 65 -91q79 0 178 81q91 75 158 182.5t67 185.5q0 64 -49 64q-66 0 -138 -65q-66 -60 -87 -128q-2 -6 -12 -16l-2 2q-1 4 -1 10q0 25 45 85
q92 123 192 123q64 0 64 -74q0 -82 -68 -192.5t-162 -186.5q-101 -83 -185 -83q-92 0 -92 127q0 106 69 209q60 92 157 160q155 109 282 109q33 0 66 -19q37 -22 37 -53zM714 293q1 -17 -24 -17q-18 0 -38 11q-23 13 -23 30q0 5 5 13.5t10 9.5l2 -3q0 -3 -1.5 -9.5
t-1.5 -9.5q0 -15 33.5 -16.5t37.5 -8.5zM855 603q0 -12 -8 -19q-64 -50 -93 -82q-47 -52 -158 -226q-80 -124 -186 -200q-123 -87 -254 -87q-51 0 -88 17q-50 23 -50 67q0 41 42 41q9 0 16.5 -9t7.5 -18q0 -23 -29 -23q-13 0 -26 10q0 -75 139 -75q94 0 182 67
q65 49 144 151q60 80 121 159q37 46 74 84q24 27 76 74q-34 -20 -65 -20q-40 0 -54 18q-6 7 -8 31q-1 20 -16 29q-23 12 -85 12q-58 0 -95 -19q-49 -25 -49 -77q0 -78 90 -78q37 0 65 21q17 13 34 38q14 21 18 22q-5 -39 -43 -66t-78 -27q-42 0 -70 24q-31 25 -31 66
q0 56 53 86q43 25 103 25q66 0 102 -16q28 -12 29 -49q2 -31 39 -31q42 0 94 42q26 22 51 43q6 -2 6 -5z" />
    <glyph glyph-name="afii10049" unicode="&#x42f;" horiz-adv-x="452" 
d="M681 577l-331 -466q-40 -57 -40 -89q0 -13 23 -13q26 0 79 56t61 56q-1 -12 -36 -50q-71 -77 -117 -77q-33 0 -33 25q0 58 40 116l130 184q-96 -35 -203 -147q-94 -99 -118 -117q-74 -60 -150 -60q-103 0 -103 71q0 48 48 48q7 0 15 -9.5t8 -17.5q0 -23 -29 -23
q-13 0 -26 10q0 -67 81 -67q52 0 88 31q29 25 103 114q62 74 112 106t137 56q-64 0 -113 17q-71 24 -71 74q0 33 32 75q37 48 106 75q61 24 128 24q53 0 76 -20q-28 10 -80 10q-55 0 -108 -32q-49 -29 -82 -77q-22 -31 -22 -58q0 -39 37 -61q31 -18 73 -18q35 0 72 12
l172 242h41z" />
    <glyph glyph-name="afii10065" unicode="&#x430;" horiz-adv-x="296" 
d="M313 120q0 -4 -40 -48q-74 -81 -119 -81q-32 0 -32 37q0 15 8 31q-53 -66 -102 -66q-42 0 -42 59q0 70 58 121q55 50 126 50q38 0 44 -31l20 26h43l-111 -159q-15 -22 -15 -39q0 -8 17 -8q29 0 83.5 55.5t55.5 55.5q6 0 6 -3zM207 180q0 34 -30 34q-45 0 -106 -71
t-61 -117q0 -20 21 -20q33 0 84 50q39 38 66 80q26 38 26 44z" />
    <glyph glyph-name="afii10066" unicode="&#x431;" horiz-adv-x="230" 
d="M346 484q0 -17 -24.5 -36t-41.5 -19q-9 0 -33.5 15.5t-36.5 15.5q-20 0 -38 -24.5t-18 -46.5q0 -28 30 -93t30 -101q0 -19 -11.5 -48.5t-24.5 -41.5h23q8 0 18.5 6.5t16.5 7.5q1 -18 -25 -23q-18 -3 -38 0q-19 -40 -52 -68q-38 -33 -78 -33q-46 0 -46 70t76 130
q33 26 83 26q29 0 29 -23q9 14 9 29q0 25 -24.5 82.5t-24.5 87.5q0 25 27 57t52 32q12 0 36.5 -1.5t37.5 -1.5q31 0 44 9q4 -5 4 -8zM172 193q0 18 -18 18q-40 0 -85 -74q-43 -69 -43 -113q0 -17 12 -17q38 0 87 74q47 71 47 112z" />
    <glyph glyph-name="afii10067" unicode="&#x432;" horiz-adv-x="283" 
d="M423 474q0 -46 -103 -133q-64 -53 -146 -106l-83 -122q-35 -51 -35 -95q0 -14 26 -14q51 0 117 110q0 108 33 108q22 0 22 -24q0 -35 -37 -89q10 -3 26 -3q10 0 25 6t23 7q0 -24 -40 -24q-28 0 -43 3q-70 -109 -138 -109q-42 0 -42 51q0 75 84 159q-33 -15 -107 -89l-8 1
l-3 3q12 18 59 55t71 50l129 159q47 62 86 98q31 30 56 30q28 0 28 -32zM416 480q0 12 -20 12q-31 0 -111 -104q-51 -69 -102 -137q109 77 122 88q71 57 99 109q12 21 12 32z" />
    <glyph glyph-name="afii10068" unicode="&#x433;" horiz-adv-x="223" 
d="M234 123q1 -14 -72 -86q-41 -41 -75 -41q-49 0 -49 67q0 21 34 44.5t56 65.5q10 18 10 29q0 13 -16 13q-29 0 -70 -50q-44 -55 -45 -55l-4 2l1 10q35 51 50 66q35 36 72 36q30 0 30 -49q0 -39 -21 -65q-6 -7 -41 -36q-22 -18 -22 -36q0 -27 24 -27q21 0 69 45
q37 34 60 65z" />
    <glyph glyph-name="afii10069" unicode="&#x434;" horiz-adv-x="270" 
d="M295 119q1 -20 -83 -90q-42 -36 -98 -50q-55 -83 -87 -121q-49 -59 -109 -102q-43 -31 -65 -31q-26 0 -26 31q0 25 42 80q33 44 106 89q33 21 81 43l45 65q-12 -12 -35 -24q-25 -15 -38 -15q-42 0 -42 48q0 53 65.5 118.5t119.5 65.5q18 0 39 -34l22 25h44l-152 -223
q92 41 162 126l9 3v-4zM201 180q0 11 -8 21.5t-19 10.5q-43 0 -97 -72.5t-54 -119.5q0 -15 12 -15q32 0 93 71q53 62 73 104zM44 -50q-110 -50 -162 -116q-45 -58 -45 -83q0 -15 18 -15q35 0 106 89q54 70 83 125z" />
    <glyph glyph-name="afii10070" unicode="&#x435;" horiz-adv-x="191" 
d="M202 117q-1 -4 -3 -8q-26 -39 -65 -74q-49 -43 -85 -43q-57 0 -57 74q0 56 45.5 105t101.5 49q42 0 42 -27q0 -34 -50 -53q-21 -8 -79 -18q-30 -59 -30 -86q0 -28 30 -28q35 0 88 53l58 58zM172 193q0 15 -24 15q-29 0 -54.5 -23t-35.5 -53q34 0 69 14q45 18 45 47z" />
    <glyph glyph-name="afii10072" unicode="&#x436;" horiz-adv-x="524" 
d="M553 121q0 -22 -59.5 -74.5t-83.5 -52.5q-63 0 -63 29q0 105 69 162q-44 -19 -96.5 -78.5t-67.5 -106.5h-42q27 87 97 192q-66 -49 -156 -143q-51 -52 -107 -52q-46 0 -46 31q0 24 14.5 43.5t37.5 19.5q14 -6 14 -17q0 -7 -5.5 -15.5t-13.5 -8.5q-22 0 -22 19q0 3 4 8
q-17 -16 -17 -42q0 -28 38 -28q33 0 58 32q21 26 44 69q26 50 26 74q0 23 -23 23q-20 0 -37.5 -14t-22.5 -33q-4 -10 -8 -10q-6 0 -6 10q0 18 34 42q29 20 63 20q42 0 42 -37q0 -19 -18 -54q-16 -31 -32 -51q54 66 163 144h15q-23 -48 -64 -144q41 53 92 92q66 52 115 52
q36 0 36 -26q0 -9 -7.5 -15.5t-16.5 -6.5q-10 0 -15 8q0 24 23 28q-9 3 -23 3q-30 0 -69 -76q-37 -71 -37 -105q0 -22 28 -22q33 0 87 55.5t58 55.5z" />
    <glyph glyph-name="afii10073" unicode="&#x437;" horiz-adv-x="244" 
d="M277 126q-1 -11 -44.5 -62.5t-59.5 -64.5q-49 -90 -83 -134q-46 -61 -114 -110q-43 -31 -65 -31q-26 0 -26 31q0 25 43 80q64 83 198 155q5 13 5 33q0 17 -16 27.5t-33 10.5q-1 0 -20 -10.5t-26 -10.5l-6 2l2 13q15 3 44 13.5t57.5 42t28.5 59.5q0 25 -28 25
q-37 0 -114 -90l-8 -1q-1 19 59 67.5t82 48.5q53 0 53 -41q0 -42 -38 -74q-32 -27 -77 -38h13q57 0 70 -29l2 -24q8 7 52 62q38 50 49 50zM114 -28q-127 -78 -173 -137.5t-46 -84.5q0 -14 18 -14q39 0 113 98q56 75 88 138z" />
    <glyph glyph-name="afii10074" unicode="&#x438;" horiz-adv-x="332" 
d="M343 121q0 -22 -60 -75t-83 -53q-43 0 -43 26q0 32 10 52q-76 -77 -130 -77q-38 0 -38 47q0 25 24 65q6 9 41 59l-32 -34q-24 -24 -34 -25v5q0 4 45 49q27 27 54 53l2 5h46q-35 -48 -69 -96q-46 -70 -46 -100q0 -14 17 -14q46 0 121 84q22 26 97 126h42q-32 -46 -63 -92
q-62 -92 -62 -105q0 -11 16 -11q33 0 86.5 55.5t58.5 55.5z" />
    <glyph glyph-name="afii10075" unicode="&#x439;" horiz-adv-x="332" 
d="M315 354q0 -35 -26 -65t-61 -30q-25 0 -49 15q-27 17 -27 40q7 -9 15 -18q14 -16 48 -16q32 0 59.5 22t27.5 53q0 35 -34 35q-19 0 -33.5 -14.5t-16.5 -33.5q-1 -8 -4 -8q-5 0 -5 7q0 21 19.5 39.5t40.5 18.5q17 0 31.5 -14t14.5 -31zM343 121q0 -22 -60 -75t-83 -53
q-43 0 -43 26q0 32 10 52q-76 -77 -130 -77q-38 0 -38 47q0 25 24 65q6 9 41 59l-32 -34q-24 -24 -34 -25v5q0 4 45 49q27 27 54 53l2 5h46q-35 -48 -69 -96q-46 -70 -46 -100q0 -14 17 -14q46 0 121 84q22 26 97 126h42q-32 -46 -63 -92q-62 -92 -62 -105q0 -11 16 -11
q33 0 86.5 55.5t58.5 55.5z" />
    <glyph glyph-name="afii10076" unicode="&#x43a;" horiz-adv-x="299" 
d="M321 202q0 -11 -6 -11q-7 0 -11 5v4q0 6 3 9l-3 4q-17 0 -37.5 -30t-73.5 -50q27 -7 27 -26q0 -18 -33.5 -52.5t-33.5 -41.5t9 -7q28 0 89 62q31 32 62 63l4 -3q-1 -23 -64 -78.5t-88 -55.5q-30 0 -30 31q0 26 19 49q18 20 35 41q0 7 -11 15q-10 -3 -25 -3q-31 0 -30 15
q5 11 20 11q27 0 38 -12q11 0 35 13q11 6 31 22q12 14 25.5 29t30.5 15q18 0 18 -18zM149 218l-145 -218h-42l141 199l-6 -3q-30 -31 -93 -87l-10 -1q0 6 51 53q31 29 62 57h42z" />
    <glyph glyph-name="afii10077" unicode="&#x43b;" horiz-adv-x="297" 
d="M307 121q0 -22 -60 -75t-83 -53q-42 0 -42 26q0 39 17 65t35 53q-12 -4 -47 -42q-45 -48 -67 -66q-41 -34 -70 -34q-41 0 -41 50q0 23 26 23q17 0 17 -16q0 -27 -33 -20q1 -10 9.5 -17.5t18.5 -7.5q25 0 48 16q43 31 103 92q56 56 92 103h41l-70 -106l-32 -44
q-21 -32 -21 -47q0 -11 14 -11q33 0 87 55.5t58 55.5z" />
    <glyph glyph-name="afii10078" unicode="&#x43c;" horiz-adv-x="430" 
d="M438 121q0 -23 -59.5 -75t-83.5 -52q-45 0 -45 32q0 28 45 92q-105 -124 -130 -124q-43 0 -43 24q0 40 17 66t35 53q-11 -4 -47 -42q-46 -47 -68 -66q-42 -34 -72 -34q-38 0 -38 44q0 22 26 22q17 0 17 -16q0 -27 -33 -20q0 -18 27 -18q38 0 130 87q70 67 114 124h41
q-31 -46 -63 -92q-60 -90 -60 -105q0 -11 15 -11q12 0 81 71q64 65 81 89l36 48h42l-64 -92q-61 -92 -61 -105q0 -11 15 -11q33 0 87 55.5t58 55.5z" />
    <glyph glyph-name="afii10079" unicode="&#x43d;" horiz-adv-x="344" 
d="M352 121q0 -23 -59.5 -75t-83.5 -52q-43 0 -43 24q0 33 6 47q4 10 26 41h-72q-25 -35 -72 -107h-50q140 193 140 203q0 6 -8 6q-24 0 -76 -49q-55 -54 -61 -56l-3 3q0 19 63.5 67.5t85.5 48.5q26 0 26 -25q0 -24 -37 -79h72l69 100h42l-70 -106q-17 -22 -33 -44
q-23 -31 -23 -47q0 -11 17 -11q32 0 86 55.5t58 55.5z" />
    <glyph glyph-name="afii10080" unicode="&#x43e;" horiz-adv-x="218" 
d="M231 119q1 -18 -25 -23q-19 -3 -39 0q-19 -40 -52 -68q-38 -33 -77 -33q-47 0 -47 70t77 130q32 26 83 26q39 0 39 -47q0 -42 -18 -69h23q8 0 18.5 6.5t17.5 7.5zM181 173q0 38 -31 38q-39 0 -84.5 -70.5t-45.5 -111.5q0 -25 25 -25q46 0 92 62q44 59 44 107z" />
    <glyph glyph-name="afii10081" unicode="&#x43f;" horiz-adv-x="344" 
d="M354 116q-4 -17 -73 -82q-42 -40 -73 -40q-17 0 -28 14t-11 32q0 37 49 97.5t49 68.5q0 6 -11 6q-68 0 -202 -213l-50 1q140 193 140 202q0 6 -8 6q-24 0 -76 -49q-56 -54 -61 -56l-3 3q0 19 63.5 67.5t85.5 48.5q24 0 24 -24q0 -17 -10 -42q59 65 101 65q22 0 22 -32
q0 -38 -43 -86t-43 -85q0 -8 17 -8q27 0 81 55t55 55z" />
    <glyph glyph-name="afii10082" unicode="&#x440;" horiz-adv-x="331" 
d="M338 121q0 -16 -72 -86q-41 -41 -75 -41q-49 0 -49 67q0 20 35 45t56 65q9 18 9 29q0 13 -14 13q-30 0 -77 -44q-33 -33 -60 -72l-253 -364h-46q167 243 301 432q20 31 65 90q-50 -48 -149 -144l-14 -3q0 7 2 11q35 34 87 84q48 46 105 99q14 13 30 36q14 20 27 39h21
q-47 -78 -140 -209q42 32 48 36q29 18 56 18q30 0 30 -49q0 -39 -22 -65q-6 -7 -41 -36q-21 -18 -21 -36q0 -27 23 -27q21 0 69 45q37 34 60 65z" />
    <glyph glyph-name="afii10083" unicode="&#x441;" horiz-adv-x="199" 
d="M215 122q0 -16 -43 -58q-37 -36 -59 -50q-30 -20 -64 -20q-24 0 -40 14.5t-16 37.5q0 103 82 153q36 21 63 21q17 0 31.5 -9t14.5 -25q0 -11 -7 -21t-19 -10q-16 0 -15 26q6 14 29 8q0 13 -14 19q-40 0 -90 -64t-50 -105q0 -35 31 -35q63 0 153 114z" />
    <glyph glyph-name="afii10084" unicode="&#x442;" horiz-adv-x="472" 
d="M485 118q0 -4 -8 -12q-62 -65 -66 -69q-48 -43 -80 -43q-15 0 -25 15t-10 31q0 39 49.5 99.5t49.5 66.5t-13 6q-40 0 -112 -88q-46 -62 -92 -125h-49q137 189 137 204q0 9 -11 9q-40 0 -111 -87q-15 -18 -91 -126h-48q144 201 144 205q0 5 -9 5q-20 0 -68 -41
q-33 -29 -65 -58l-9 -1q0 19 63.5 66t84.5 47q26 0 26 -21q0 -19 -16 -47q62 68 101 68q35 0 35 -22q0 -29 -9 -45q65 66 103 66q23 0 23 -31q0 -38 -44.5 -89.5t-44.5 -75.5q0 -15 24 -15q21 0 75 56.5t62 56.5q4 0 4 -5z" />
    <glyph glyph-name="afii10085" unicode="&#x443;" horiz-adv-x="359" 
d="M372 115q-3 -8 -38 -46q-64 -71 -141 -92q-25 -33 -76 -97q-39 -46 -92 -93q-72 -64 -103 -64q-32 0 -32 45q0 25 29 64q32 43 119 90q41 22 98 46l50 72q-12 -10 -47 -28t-47 -18q-40 0 -40 45q0 57 76 138q9 8 24 26q-1 5 -13 5q-20 0 -77 -51t-65 -52v4q0 15 63 63
t82 48q33 0 33 -23q0 -27 -50 -90.5t-50 -77.5q0 -25 22 -25q20 0 70 38q44 35 61 56l89 119h43q-51 -75 -157 -223q40 13 78 44q22 18 53 52q24 26 32 29q4 0 6 -4zM124 -50q-15 -2 -87 -42q-134 -73 -134 -149q0 -24 22 -24q32 0 108 90q65 77 91 125z" />
    <glyph glyph-name="afii10086" unicode="&#x444;" horiz-adv-x="367" 
d="M498 479q0 -54 -52 -102q-93 -84 -182 -144q-7 -14 -18 -29q26 13 49 13q47 0 47 -65q0 -23 -9 -48q19 0 31 12l10 1q1 -23 -45 -23q0 -2 -7 -12q-58 -91 -140 -91q-39 0 -38 50q-15 -17 -32 -47q-13 -25 -27 -50q-40 -68 -57 -94q-35 -51 -69.5 -82.5t-79.5 -31.5
q-10 0 -10 19q0 38 35 74q78 78 154 135l26 45q-24 -16 -52 -16q-46 0 -46 70t76 130q33 26 83 26q39 0 38 -59q33 47 77 113q72 109 93 136q73 94 120 94q25 0 25 -24zM490 474q0 17 -18 17q-40 0 -114 -118q-20 -32 -88 -123q91 65 125 94q73 64 94 120zM315 185
q0 24 -27 24q-29 0 -52 -21q-10 -8 -40 -59q-35 -59 -41 -67q-2 -13 -2 -23q0 -37 29 -37q39 0 87 73q46 69 46 110zM174 191q0 19 -30 19q-39 0 -85 -72q-45 -68 -45 -110q0 -25 26 -25q35 0 58 29q18 29 35 58q12 18 37 53q4 25 4 48zM54 -48q-178 -140 -178 -197
q0 -9 9 -9q32 0 54 26q26 31 60 88q41 72 55 92z" />
    <glyph glyph-name="afii10087" unicode="&#x445;" horiz-adv-x="301" 
d="M311 194q0 -13 -10 -13q-11 0 -13 6q-1 6 2 12t9 6l-2 6q-9 6 -23 6q-31 0 -88.5 -74.5t-57.5 -107.5q0 -30 21 -30q31 0 68 30q21 17 55 56q27 30 33 30l4 -2q-1 -22 -85 -95q-39 -34 -77 -34q-17 0 -27.5 13.5t-10.5 30.5q0 7 3 14q-40 -51 -107 -51q-14 0 -27.5 8.5
t-13.5 21.5q0 12 15 12q13 0 12 -14v-5q-3 -4 -10 -4l-3 -2q8 -8 25 -8q27 0 57 27t68 80q45 63 45 91q0 10 -8 10q-32 0 -72 -28q-21 -15 -60 -53q-30 -29 -38 -29l-2 5q0 4 5 9q102 106 171 106q15 0 15 -21q0 -17 -5 -34q54 54 94 54q38 0 38 -29z" />
    <glyph glyph-name="afii10088" unicode="&#x446;" horiz-adv-x="332" 
d="M344 121q-1 -22 -69 -82q-19 -55 -49 -101q-43 -65 -82 -65q-11 0 -15 3l-2 20q12 23 102 90l8 23q-23 -16 -37 -16q-43 0 -43 26q0 32 10 52q-76 -77 -130 -77q-38 0 -38 47q0 25 24 65q6 9 41 59l-32 -34q-24 -24 -34 -25v4q0 4 99 103l2 5h46l-69 -95q-48 -71 -48 -99
q0 -16 19 -16q46 0 121 84q22 26 97 126h42l-70 -106q-16 -22 -33 -44q-23 -31 -23 -47q0 -11 17 -11q35 0 86.5 55.5t59.5 55.5zM226 -22q-75 -53 -90 -77q-2 -9 -2 -12q0 -13 19 -13q16 0 44 42t29 60z" />
    <glyph glyph-name="afii10089" unicode="&#x447;" horiz-adv-x="332" 
d="M343 121q0 -22 -59.5 -74.5t-82.5 -52.5q-55 0 -55 36q0 21 19 52q17 23 33 46q-34 -33 -85 -33q-50 0 -50 25q0 7 21 62q-11 -4 -42 -39.5t-44 -36.5v5q0 4 45 49q27 27 54 53l2 5h46q-15 -21 -30 -43q-18 -28 -18 -47q0 -20 28 -20q39 0 80 39q19 18 60 71h42
q-31 -45 -63 -91q-62 -93 -62 -106q0 -11 16 -11q33 0 86.5 55.5t58.5 55.5z" />
    <glyph glyph-name="afii10090" unicode="&#x448;" horiz-adv-x="460" 
d="M474 121q0 -23 -59.5 -75t-83.5 -52q-43 0 -43 23q0 31 9 52q-24 -25 -49 -50q-31 -25 -64 -25q-43 0 -43 23q0 31 10 52q-4 -6 -26 -28q-26 -26 -39 -34q-21 -13 -49 -13q-38 0 -38 47q0 25 24 65q6 9 41 59l-32 -34q-24 -24 -34 -25v5q0 4 45 49q27 27 54 53l2 5h46
l-69 -95q-48 -71 -48 -99q0 -16 19 -16q38 0 110 87q5 6 93 123h42q-117 -166 -117 -195q0 -14 18 -14q40 0 112 86q46 61 92 123h41q-31 -46 -63 -92q-61 -92 -61 -105q0 -11 15 -11q33 0 87 55.5t58 55.5z" />
    <glyph glyph-name="afii10091" unicode="&#x449;" horiz-adv-x="462" 
d="M474 121q0 -22 -69 -83q-40 -105 -91 -146q-22 -18 -39 -18q-11 0 -14 3l-2 20q11 24 101 89l8 22q-24 -14 -37 -14q-43 0 -43 23q0 31 9 52q-24 -25 -49 -50q-31 -25 -64 -25q-43 0 -43 23q0 31 10 52q-4 -5 -26 -28q-26 -26 -39 -34q-21 -13 -49 -13q-38 0 -38 47
q0 25 24 65q6 9 41 59l-32 -34q-24 -24 -34 -25v4q0 4 99 103l2 5h46q-69 -94 -69 -95q-48 -71 -48 -99q0 -16 19 -16q38 0 110 87q5 6 93 123h42q-118 -174 -118 -195q0 -14 19 -14q40 0 112 86q46 61 92 123h41l-69 -106l-34 -44q-22 -31 -22 -47q0 -11 16 -11
q33 0 87 55.5t58 55.5zM357 -21q-74 -53 -90 -77q-2 -9 -2 -12q0 -13 20 -13q16 0 44 42t28 60z" />
    <glyph glyph-name="afii10092" unicode="&#x44a;" horiz-adv-x="357" 
d="M362 119q1 -24 -56 -24q-15 -42 -56.5 -72t-84.5 -30q-68 0 -68 49q0 30 25 68l44 60q-40 -7 -60 -7q-25 0 -39 21q-17 -22 -33 -45q-25 -33 -36 -34l-3 2q0 8 13 18q19 16 53 73q0 14 11.5 28t25.5 14q11 0 11 -9q0 -10 -18 -24q-1 -17 4.5 -21t22.5 -4q60 0 71 14
q5 8 17 24h43q-17 -25 -53 -72q26 21 72 21q19 0 31.5 -13t12.5 -32q0 -9 -3 -19q10 0 27.5 6.5t25.5 7.5zM276 127q0 29 -18 29q-31 0 -47 -8q-33 -18 -56.5 -54t-23.5 -72q0 -20 27 -20q33 0 75.5 46t42.5 79z" />
    <glyph glyph-name="afii10093" unicode="&#x44b;" horiz-adv-x="405" 
d="M413 121q0 -23 -59.5 -75t-83.5 -52q-43 0 -43 25q0 53 27 80q-43 -43 -78 -54q-46 -52 -106 -52q-68 0 -68 49q0 44 67 121q-25 -25 -33 -32q-26 -24 -35 -25v5l51.5 49t58.5 60h43l-105 -145q-12 -17 -12 -51q0 -22 27 -22q30 0 70 41q-35 11 -35 52q0 27 21 50.5
t48 23.5q46 0 46 -32q0 -37 -23 -73q35 21 80 69q41 45 65 85h41l-70 -106l-32 -44q-21 -32 -21 -47q0 -11 14 -11q33 0 87 55.5t58 55.5zM181 127q0 28 -19 28q-23 0 -37 -19t-14 -42q0 -38 31 -42q39 44 39 75z" />
    <glyph glyph-name="afii10094" unicode="&#x44c;" horiz-adv-x="252" 
d="M264 119q1 -25 -53 -25q0 -5 -8 -17q-31 -41 -56 -59q-34 -25 -77 -25q-67 0 -67 49q0 25 23 64q21 30 41 59l-32 -34q-24 -24 -34 -25v4q0 5 4 6q35 35 106 104h43q-16 -25 -53 -72q26 21 73 21q19 0 31 -13t12 -32q0 -9 -3 -19q11 0 27 6.5t23 7.5zM181 127
q0 29 -18 29q-30 0 -46 -8q-33 -18 -56.5 -54t-23.5 -72q0 -20 27 -20q33 0 75 46t42 79z" />
    <glyph glyph-name="afii10095" unicode="&#x44d;" horiz-adv-x="252" 
d="M258 118l-1 -10q-16 -15 -56 -15q-17 -39 -52 -67q-38 -32 -77 -32q-48 0 -48 43q0 7 8.5 14.5t15.5 7.5q17 0 17 -17q0 -20 -17 -20q-7 0 -14 2q-1 -17 19 -17q39 0 88 65q47 62 47 103q0 34 -31 34q-33 0 -71 -30q-20 -15 -58 -56q-29 -30 -38 -30q1 9 33 44
q75 82 138 82q55 0 55 -66q0 -21 -10 -50q12 0 28.5 7t23.5 8zM165 114q-3 -5 -16 -11t-20 -6q-24 0 -30.5 12t-17.5 12q-9 0 -24 -8l-4 2q30 19 41 19q20 0 25 -14.5t16 -14.5t27 11z" />
    <glyph glyph-name="afii10096" unicode="&#x44e;" horiz-adv-x="420" 
d="M424 119q1 -18 -25 -23q-19 -3 -39 0q-19 -40 -52 -68q-38 -33 -77 -33q-47 0 -47 62q0 25 8 47h-65l-70 -105h-50q140 191 140 203q0 6 -8 6q-27 0 -73 -47q-51 -53 -64 -58l-3 3q0 20 64 68t86 48q26 0 26 -25q0 -20 -14 -43q-14 -19 -27 -38h60q8 8 10 14
q60 91 140 91q39 0 39 -47q0 -41 -18 -69h23q7 0 18 6.5t18 7.5zM368 176q0 39 -31 39q-38 0 -85 -73q-44 -68 -44 -110q0 -25 25 -25q46 0 92 62q43 59 43 107z" />
    <glyph glyph-name="afii10097" unicode="&#x44f;" horiz-adv-x="314" 
d="M322 121q0 -23 -59.5 -75t-82.5 -52q-49 0 -49 35t46 97l68 92h42l-70 -106q-17 -22 -33 -44q-23 -31 -23 -47q0 -11 17 -11q32 0 86 55.5t58 55.5zM210 197q0 -48 -113 -155q-51 -47 -93 -47q-37 0 -37 47q0 23 26 23q18 0 18 -16q0 -27 -35 -20q0 -24 26 -24q20 0 38 8
q31 13 94.5 82.5t63.5 98.5q0 20 -27 20q-26 0 -51 -18q-27 -21 -27 -45q0 -16 18 -23q15 -4 31 -7q-10 -6 -20 -6q-71 0 -71 36q0 35 33 59q30 23 66 23q60 0 60 -36z" />
    <glyph glyph-name="afii10071" unicode="&#x451;" horiz-adv-x="191" 
d="M240 332q0 -34 -36 -34q-20 0 -20 12q0 34 36 34q16 0 20 -12zM127 332q0 -35 -32 -35q-25 0 -25 16q0 31 37 31q15 0 20 -12zM202 117q-1 -4 -3 -8q-26 -39 -65 -74q-49 -43 -85 -43q-57 0 -57 74q0 56 45.5 105t101.5 49q42 0 42 -27q0 -34 -50 -53q-21 -8 -79 -18
q-30 -59 -30 -86q0 -28 30 -28q35 0 88 53l58 58zM171 193q0 15 -24 15q-29 0 -54.5 -23t-35.5 -53q34 0 69 14q45 18 45 47z" />
    <glyph glyph-name="afii10101" unicode="&#x454;" horiz-adv-x="252" 
d="M-10 96l1 9q16 16 56 16q18 38 52 67q38 31 77 31q48 0 48 -42q0 -8 -8 -15.5t-16 -7.5q-17 0 -17 17q0 20 17 20q7 0 14 -2q1 18 -19 18q-38 0 -88 -66q-47 -62 -47 -102q0 -35 31 -35q33 0 71 30q20 15 58 56q29 30 38 31q-1 -9 -33 -45q-75 -82 -138 -82q-55 0 -55 66
q0 21 10 50q-12 0 -28.5 -7t-23.5 -7zM83 99q3 6 16 12t20 6q24 0 30.5 -12t17.5 -12q9 0 24 7l4 -2q-30 -19 -41 -19q-20 0 -25 14.5t-16 14.5t-27 -11z" />
    <glyph glyph-name="afii10102" unicode="&#x455;" horiz-adv-x="168" 
d="M174 119q0 -29 -51 -40q-7 -35 -47 -59q-36 -22 -74 -22q-11 0 -24.5 9.5t-13.5 20.5q0 31 19 31q6 0 12.5 -6.5t6.5 -12.5t-6 -11.5t-11 -5.5q-7 0 -11 6q0 -23 28 -23q35 0 71 62q31 56 31 95q0 23 -12 37q-24 -27 -47 -53q-38 -41 -50 -41q0 8 3 13q12 17 48 49.5
t50 51.5q4 7 14 17t16 10q10 0 10 -11q0 -6 -37 -28q35 -42 35 -82q0 -15 -8 -33q15 0 29.5 12.5t18.5 13.5z" />
    <glyph glyph-name="afii10103" unicode="&#x456;" horiz-adv-x="165" 
d="M221 333q0 -34 -37 -34q-19 0 -19 12q0 34 36 34q16 0 20 -12zM180 117q-3 -13 -84 -91q-34 -32 -63 -32q-11 0 -22 7t-11 17q0 44 17 78q13 25 48 63q-25 -23 -61 -51l-3 3q-1 9 46 53q30 26 59 53l47 1l-72 -94q-61 -83 -61 -103q0 -11 19 -11q24 0 77 55t61 56z" />
    <glyph glyph-name="afii10104" unicode="&#x457;" horiz-adv-x="165" 
d="M240 332q0 -34 -36 -34q-20 0 -20 12q0 34 36 34q16 0 20 -12zM127 332q0 -35 -32 -35q-25 0 -25 16q0 31 37 31q15 0 20 -12zM180 117q-3 -13 -84 -91q-34 -32 -63 -32q-11 0 -22 7t-11 17q0 44 17 78q13 25 48 63q-25 -23 -61 -51l-3 3q-1 9 46 53q30 26 59 53l47 1
l-72 -94q-61 -83 -61 -103q0 -11 19 -11q24 0 77 55t61 56z" />
    <glyph glyph-name="afii10105" unicode="&#x458;" horiz-adv-x="175" 
d="M257 333q0 -34 -37 -34q-19 0 -19 12q0 34 35 34q16 0 21 -12zM199 117q0 -3 -5 -9q-56 -63 -85 -85q-48 -37 -110 -46q-55 -76 -128 -150q-102 -104 -149 -104q-16 0 -28.5 12.5t-12.5 28.5q0 49 73 100q24 16 116 65q27 14 82 41q83 117 145 207q-26 -22 -77 -68
l-11 -3v4q-1 10 49 51q31 25 63 50l4 7h45q-72 -107 -163 -229q55 10 104 51q19 16 82 83q6 -1 6 -6zM-60 -46q-102 -48 -148 -76q-101 -63 -101 -112q0 -33 35 -33q46 0 120 89q25 31 94 132z" />
    <glyph glyph-name="afii10110" unicode="&#x45e;" horiz-adv-x="359" 
d="M317 354q0 -35 -26 -65t-61 -30q-25 0 -49 15q-27 17 -28 40l16 -18q14 -16 48 -16q32 0 59.5 22t27.5 53q0 35 -34 35q-19 0 -33.5 -14.5t-16.5 -33.5q-1 -8 -4 -8q-5 0 -5 7q0 21 19.5 39.5t40.5 18.5q17 0 31.5 -14t14.5 -31zM372 115q-3 -8 -38 -46q-64 -71 -141 -92
q-25 -33 -76 -97q-39 -46 -92 -93q-72 -64 -103 -64q-32 0 -32 45q0 25 29 64q32 43 119 90q41 22 98 46l50 72q-12 -10 -47 -28t-47 -18q-40 0 -40 45q0 57 76 138q9 8 24 26q-1 5 -13 5q-20 0 -77 -51t-65 -52v4q0 15 63 63t82 48q33 0 33 -23q0 -27 -50 -90.5t-50 -77.5
q0 -25 22 -25q20 0 70 38q44 35 61 56l89 119h43q-51 -75 -157 -223q40 13 78 44q22 18 53 52q24 26 32 29q4 0 6 -4zM124 -50q-15 -2 -87 -42q-134 -73 -134 -149q0 -24 22 -24q32 0 108 90q65 77 91 125z" />
    <glyph glyph-name="afii10050" unicode="&#x490;" horiz-adv-x="630" 
d="M1098 685q-5 -11 -5 -47q-1 -30 -15 -44q-35 -38 -138 -38q-85 0 -235 31q-71 14 -122 14q-76 0 -143 -29q-75 -33 -111 -91q-26 -43 -26 -80q0 -46 28 -72t74 -26q75 0 146.5 59.5t71.5 132.5q0 18 -23 27q-17 7 -37 7q-104 0 -175 -75q-11 -12 -26 -35q8 54 79 90
q61 31 122 31q74 0 74 -58q0 -72 -81 -134q-77 -58 -151 -58q-51 0 -84.5 30t-33.5 81q0 57 45 108q37 42 97 70q77 37 194 37q61 0 182.5 -12.5t182.5 -12.5q49 0 66 13q11 8 15 32t13 35q5 4 16 14zM864 540q-78 -6 -233 -264q-76 -126 -196 -206q-131 -86 -269 -86
q-52 0 -93 15q-58 21 -58 64q0 58 53 58q29 0 29 -27q0 -13 -11.5 -23t-24.5 -10q-9 0 -27 9q-1 -74 133 -74q92 0 205 70q110 68 225 236q164 239 260 238h7z" />
    <glyph glyph-name="afii10098" unicode="&#x491;" horiz-adv-x="223" 
d="M234 123q0 -14 -72 -86q-40 -41 -75 -41q-49 0 -49 67q0 21 34 44t56 66q10 18 10 29q0 13 -16 13q-22 0 -49.5 -28t-43.5 -28q-12 0 -20 21q-6 10 -16 29l2 4l10 -2q3 -3 11 -22q7 -15 16 -15q6 0 34.5 25t59.5 25q30 0 30 -49q0 -39 -21 -65q-6 -7 -41 -36
q-22 -18 -22 -36q0 -27 24 -27q21 0 69 45q37 35 60 65z" />
    <glyph glyph-name="endash" unicode="&#x2013;" horiz-adv-x="228" 
d="M210 136q-38 -19 -66 -19h-19q-14 0 -38.5 5.5t-36.5 5.5q-3 0 -10 -1t-10 -2l-5 2q2 6 38 11q31 4 44 4t38 -5.5t38 -5.5q5 0 14 2.5t13 2.5z" />
    <glyph glyph-name="emdash" unicode="&#x2014;" horiz-adv-x="489" 
d="M446 147q0 -4 -6 -9q-32 -27 -109 -27q-139 0 -193 16q-6 2 -15 2q-24 0 -54 -15l-8 1q13 34 128 34h53q89 0 116 -12q3 0 10.5 -1.5t10.5 -1.5q12 0 34 6t33 7z" />
    <glyph glyph-name="quoteleft" unicode="&#x2018;" horiz-adv-x="104" 
d="M113 611l-2 -5q-49 -35 -52 -47q1 -2 13 -4.5t12 -10.5q0 -33 -37 -33q-22 0 -22 14q0 23 33 53q30 27 55 33z" />
    <glyph glyph-name="quoteright" unicode="&#x2019;" horiz-adv-x="197" 
d="M192 608q0 -47 -67 -87q-10 -6 -28 -13q2 5 37 31q33 23 33 31q0 6 -14 7.5t-14 9.5q0 15 10.5 25t25.5 10q17 0 17 -14z" />
    <glyph glyph-name="quotesinglbase" unicode="&#x201a;" horiz-adv-x="108" 
d="M88 31q0 -28 -33.5 -61t-62.5 -38q58 43 70 60q0 8 -14 9t-14 10q0 34 36 34q18 0 18 -14z" />
    <glyph glyph-name="quotedblleft" unicode="&#x201c;" horiz-adv-x="282" 
d="M552 624l-2 -5q-49 -35 -52 -48q1 -1 13 -3.5t12 -10.5q0 -34 -37 -34q-22 0 -22 15q0 23 33 52q30 28 55 34zM458 624q0 -5 -25.5 -24t-28.5 -29q2 -1 12.5 -3t13.5 -11q1 -34 -36 -34q-23 0 -23 15q0 24 31 52t56 34z" />
    <glyph glyph-name="quotedblright" unicode="&#x201d;" horiz-adv-x="294" 
d="M531 599q0 -30 -32.5 -62t-62.5 -37q2 5 38 30q32 24 32 32q0 5 -14 6.5t-14 9.5q0 35 36 35q17 0 17 -14zM438 598q0 -29 -32.5 -60.5t-63.5 -37.5q28 19 70 60q1 8 -13.5 8.5t-14.5 8.5q0 36 36 36q18 0 18 -15z" />
    <glyph glyph-name="quotedblbase" unicode="&#x201e;" horiz-adv-x="212" 
d="M188 31q0 -28 -33.5 -61t-62.5 -38q58 43 70 60q0 8 -14 9t-14 10q0 34 36 34q18 0 18 -14zM88 31q0 -28 -33.5 -61t-62.5 -38q58 43 70 60q0 8 -14 9t-14 10q0 34 36 34q18 0 18 -14z" />
    <glyph glyph-name="dagger" unicode="&#x2020;" horiz-adv-x="236" 
d="M239 437q-3 -3 -8 -3q-4 0 -10.5 2t-10.5 2q-2 0 -25 -4q-46 -59 -85 -120q-3 -6 -13 -13l-5 2q-5 5 -5 10q0 8 42 59l52 62l-47 -6q-9 0 -13 2q0 8 66 17q11 12 22 25q18 18 25 18l4 -3q-13 -15 -33 -38q45 0 44 -12z" />
    <glyph glyph-name="bullet" unicode="&#x2022;" horiz-adv-x="306" 
d="M259 165q0 -42 -27.5 -67t-70.5 -25q-40 0 -68 25t-28 65t28.5 65.5t68.5 25.5q42 0 69.5 -24t27.5 -65z" />
    <glyph glyph-name="ellipsis" unicode="&#x2026;" horiz-adv-x="403" 
d="M369 34q0 -34 -37 -34q-19 0 -19 12q0 33 35 33q16 0 21 -11zM238 23q0 -23 -36 -23q-20 0 -20 12q0 14 11 23.5t26 9.5q19 0 19 -22zM109 34q0 -34 -37 -34q-19 0 -19 12q0 33 36 33q16 0 20 -11z" />
    <glyph glyph-name="guilsinglleft" unicode="&#x2039;" horiz-adv-x="213" 
d="M188 286q0 -2 -54.5 -42t-54.5 -63q0 -31 42.5 -79.5t42.5 -54.5q0 -4 -6 -4q-10 0 -68.5 57t-58.5 68q0 10 69 67t83 57q5 0 5 -6z" />
    <glyph glyph-name="guilsinglright" unicode="&#x203a;" horiz-adv-x="208" 
d="M186 183q0 -18 -124 -132q-7 -6 -15 -6l-3 5q1 10 47 49t46 62q0 26 -40.5 73t-40.5 50q0 8 7 8q2 0 7.5 -7t63.5 -52q52 -40 52 -50z" />
    <glyph glyph-name="afii61352" unicode="&#x2116;" horiz-adv-x="1116" 
d="M1047 332q0 -40 -33 -82q-34 -45 -73 -45q-32 0 -32 39t11 56q39 63 98 63q29 0 29 -31zM1023 172h-150v12h150v-12zM1194 559q0 -12 -8 -21.5t-20 -9.5q-17 0 -25 15q-2 32 23 36q-14 16 -42 16q-62 0 -114 -39q-39 -28 -98 -107q-44 -60 -89 -121q-135 -178 -217 -298
q-13 -21 -36 -46l-6 4q-2 8 7 14q24 18 38 64q12 40 25 165q11 103 92 288q-51 -101 -173 -242q-125 -145 -162 -179q-115 -111 -200 -111q-157 0 -157 90q0 24 25 24q39 0 39 -26q0 -24 -35 -23q-1 -52 128 -52q55 0 110 39q73 50 194 188q100 113 174 215q49 67 85 142
q3 6 6 6q5 0 5 -4q0 -5 -2 -9q-44 -85 -66 -266v1q-8 -87 -85 -266q49 88 133 199l146 190q26 35 51 69q31 39 59 62q53 42 123 42q25 0 46 -12q26 -14 26 -37zM1040 329q0 27 -23 27q-29 0 -61 -51q-29 -47 -29 -79q0 -15 17 -15q32 0 64 44q32 41 32 74z" />
    <glyph glyph-name="trademark" unicode="&#x2122;" horiz-adv-x="254" 
d="M235 420h-10v84l-68 -92v95l-65 -87h-11l86 112v-94l68 94v-112zM140 530l-4 -10h-35l-46 -100h-12l48 100h-34l4 10h79z" />
  </font>
</defs>
</svg>
